<svg width="317" height="84" viewBox="0 0 317 84" fill="none" xmlns="http://www.w3.org/2000/svg">
<path fill-rule="evenodd" clip-rule="evenodd" d="M3.39764 1.54246H3.59136C3.88543 1.53456 4.17611 1.59679 4.4295 1.72188C4.68288 1.84697 4.88851 2.02977 5.02238 2.24894C5.14312 2.42579 5.24175 2.63612 5.31827 2.87994C5.39097 3.11703 5.44198 3.3584 5.47086 3.60196H5.27647L5.47086 4.14417C6.93925 4.14417 11.0209 3.76475 17.7158 3.00592C17.9716 3.08043 18.2157 3.18049 18.4429 3.30394C18.7622 3.4819 18.996 3.69723 19.1442 3.94993C19.2747 4.17965 19.3401 4.43149 19.3352 4.68582C19.3204 4.86193 19.2533 5.03215 19.1398 5.18102C19.0264 5.32989 18.8703 5.45269 18.6857 5.53826C17.5681 6.19239 15.0079 6.64081 11.0052 6.88352C10.8663 6.89199 10.7275 6.90013 10.5886 6.90794L4.8877 7.55836V9.94308C4.89751 10.4443 4.92628 10.9451 4.97395 11.4448C5.17828 13.8627 5.74397 18.5644 6.671 25.55C6.89453 27.2309 7.12076 28.9116 7.34969 30.592H15.6426C15.946 30.5871 16.2473 30.6341 16.5282 30.7301C17.1342 30.9477 17.5289 31.4215 17.7125 32.1514C17.7136 32.1555 17.7147 32.1596 17.7158 32.1636C17.7347 32.4401 17.6561 32.7151 17.4896 32.9545C17.3232 33.1939 17.0763 33.3871 16.7797 33.51C16.3095 33.7183 15.6627 33.8291 14.8392 33.8424C14.783 33.8432 14.7268 33.8436 14.6706 33.8435H7.34969V34.0605L7.15531 45.2793C7.1537 45.9029 7.17384 46.5264 7.21568 47.149C7.33731 48.8831 7.64094 50.2108 8.12657 51.1321L20.9547 50.4278C21.2247 50.4539 21.4911 50.5019 21.7501 50.571C22.5909 50.8033 23.0168 51.2525 23.0279 51.9184C23.0279 51.9273 23.0279 51.9362 23.0279 51.9451C23.0279 52.9152 21.9644 53.4783 19.8374 53.6344C19.3902 53.6658 18.9415 53.6808 18.4927 53.6794C10.7181 54.0408 6.83089 54.3842 6.83089 54.7094C6.56524 54.7008 6.30552 54.6412 6.07186 54.5351C5.8382 54.4291 5.63686 54.2795 5.48346 54.0978C4.77005 53.3716 4.21122 51.9985 3.80697 49.9788C3.7255 49.5697 3.65361 49.1593 3.59136 48.7479L3.2676 44.6289L3.39764 32.3262L1 9.94308V8.26262C1 5.02898 1.41641 2.96226 2.24924 2.06247C2.37686 1.90517 2.54779 1.77583 2.74765 1.68534C2.9475 1.59484 3.17042 1.54584 3.39764 1.54246ZM287.234 2.89715V5.93229C287.234 7.91725 287.23 9.90221 287.222 11.8872C287.205 16.2933 287.171 21.343 287.12 27.0362C287.096 29.7571 287.069 32.478 287.04 35.1988C287.442 34.8587 287.872 34.5424 288.326 34.252C289.383 33.5849 290.389 33.2331 291.344 33.1964C291.4 33.1943 291.455 33.1932 291.51 33.1931C292.256 33.2008 292.988 33.3592 293.644 33.6548C294.301 33.9504 294.862 34.3745 295.28 34.8908C296.285 35.9859 297.084 37.6111 297.678 39.7662C297.943 40.7463 298.155 41.7359 298.313 42.732C298.443 47.4652 298.767 51.566 299.285 55.0346C299.285 55.5478 298.802 56.023 297.837 56.4603C297.633 56.5524 297.424 56.6372 297.212 56.7145C296.129 56.262 295.446 55.7799 295.161 55.2683C295.062 55.0937 295.009 54.9028 295.008 54.7094L295.268 54.5468V54.3298C295.192 53.0509 295.111 51.7722 295.023 50.4938C294.491 42.7849 293.931 38.6328 293.343 38.0375C293.326 38.0166 293.304 37.999 293.279 37.9861C293.253 37.9731 293.224 37.9651 293.195 37.9625C293.09 37.787 292.979 37.6145 292.861 37.4453C292.491 36.9203 292.145 36.5934 291.823 36.4647C291.805 36.4577 291.787 36.4512 291.769 36.4453H291.121C290.226 37.0896 289.476 37.8631 288.907 38.729C288.218 39.8102 287.866 41.0191 287.882 42.2442L288.011 53.8964C287.905 54.1145 287.78 54.3256 287.636 54.5279C287.266 55.0396 286.835 55.3424 286.344 55.4364C286.232 55.4577 286.118 55.4683 286.003 55.4681C285.745 55.4619 285.492 55.4039 285.266 55.299C285.04 55.1941 284.848 55.0454 284.705 54.8654C284.01 54.1117 283.536 52.6506 283.282 50.4822C283.39 49.7001 283.482 48.9166 283.558 48.1319C283.676 46.8983 283.735 45.7849 283.735 44.7915V44.6289L283.606 44.4663L283.735 44.3037V42.9484L284.124 18.1805C283.606 14.1341 283.347 10.1597 283.347 6.25751V3.00592C283.36 2.74205 283.41 2.48038 283.496 2.22618C283.742 1.53025 284.275 1.13067 285.095 1.02744C285.245 1.00894 285.397 0.999848 285.549 1.00025C285.812 0.995669 286.071 1.05417 286.296 1.16884C286.52 1.28351 286.701 1.44955 286.816 1.64735C286.926 1.81051 287.017 2.00457 287.088 2.22951C287.156 2.44879 287.205 2.67193 287.234 2.89715ZM201.26 2.57193H201.455C201.947 2.58691 202.438 2.61096 202.929 2.64408C205.358 2.81168 206.573 3.18518 206.573 3.76457V4.84843C206.331 5.28176 205.915 5.6306 205.398 5.83462C205.254 5.89387 205.105 5.94468 204.953 5.98668L202.102 5.82407H200.677V5.98668C201.282 34.9999 202.232 49.5065 203.528 49.5065L210.46 48.6935C211.41 49.055 211.885 49.5607 211.885 50.2108V50.3734C211.885 51.5296 209.229 52.2884 203.917 52.6499C203.085 52.7779 202.25 52.8964 201.414 53.0056C199.616 53.2391 198.088 53.383 196.831 53.4374C196.472 53.4537 196.113 53.4622 195.753 53.4629C195.52 53.3855 195.3 53.2843 195.096 53.1616C194.594 52.8515 194.338 52.4383 194.328 51.9218C194.328 51.9116 194.328 51.9014 194.328 51.8913C194.327 51.6212 194.419 51.3568 194.593 51.1293C194.767 50.9017 195.015 50.7207 195.308 50.6076C196.11 50.2347 197.403 50.0482 199.187 50.0482V49.8317C198.107 43.9424 197.308 29.3816 196.79 6.14929H196.531L190.635 7.01615C190.359 6.91738 190.099 6.78943 189.861 6.63544C189.592 6.46546 189.374 6.24421 189.227 5.99002C189.08 5.73582 189.008 5.45598 189.015 5.17365C189.015 4.12586 191.736 3.38515 197.178 2.95153C197.178 2.77172 198.525 2.64574 201.217 2.5736C201.232 2.57304 201.246 2.57249 201.26 2.57193ZM256.719 77.1464L256.33 76.3339C256.39 76.0946 256.479 75.861 256.595 75.6369C256.731 75.3834 256.898 75.1766 257.095 75.0164C257.269 74.8774 257.474 74.7689 257.699 74.6973C257.924 74.6258 258.163 74.5925 258.404 74.5996C258.515 74.6086 258.623 74.6388 258.718 74.6879C259.25 74.9239 260.225 75.6352 261.643 76.8217C263.94 78.2432 265.859 79.1469 267.4 79.5328C267.906 79.6673 268.433 79.7398 268.963 79.7481H270.195C270.608 79.7269 271.008 79.6178 271.357 79.431C271.706 79.2442 271.992 78.986 272.188 78.6809C273.658 76.8621 274.549 72.7196 274.859 66.2534C275.285 63.3382 275.558 60.4089 275.678 57.4737C275.737 56.065 275.767 54.6555 275.766 53.2459V51.349C275.267 51.5548 274.76 51.7464 274.245 51.9234C272.931 52.3715 271.862 52.5955 271.037 52.5955C269.891 52.6181 268.757 52.4002 267.737 51.9618C266.718 51.5233 265.846 50.8782 265.202 50.0854C264.541 49.3247 263.98 48.391 263.521 47.2844C262.914 45.9709 262.606 44.5738 262.614 43.1654C262.598 42.0103 262.794 40.86 263.197 39.7551C264.051 37.5101 265.843 35.8287 268.575 34.711L271.296 34.494C271.961 34.4976 272.619 34.6139 273.229 34.8358C273.594 34.9666 273.944 35.1243 274.276 35.307H274.73C274.893 35.1338 275.064 34.9661 275.242 34.8042C275.79 34.3117 276.258 34.0472 276.647 34.0106C276.677 34.0077 276.708 34.0062 276.738 34.0061C277.045 34.0114 277.344 34.0862 277.604 34.2227C277.864 34.3591 278.075 34.5521 278.214 34.7809C278.872 35.6707 279.2 37.3275 279.2 39.7512C279.451 41.7832 279.581 46.346 279.589 53.4396C279.589 53.6642 279.589 53.8888 279.589 54.1134C279.601 58.3586 279.363 62.6017 278.874 66.8272C278.41 70.8829 277.631 74.9092 276.544 78.8807C276.108 79.5899 275.575 80.2543 274.955 80.8603C273.466 82.2866 271.663 82.9997 269.547 82.9997C265.768 82.9997 261.67 81.1968 257.253 77.5909C257.074 77.444 256.895 77.2958 256.719 77.1464ZM40.2618 8.31701V12.3816C40.2784 19.4533 40.6476 26.5213 41.3684 33.5672C41.9702 39.5117 42.7678 45.4412 43.7601 51.349L45.1208 54.9258C44.8377 55.7724 44.2322 56.2223 43.3043 56.2755C43.2405 56.2792 43.1765 56.2811 43.1126 56.2811C41.7733 56.2811 40.8231 54.9262 40.2618 52.2165H39.808C39.3458 52.5763 38.8468 52.9014 38.3166 53.1882C37.2268 53.7687 36.1474 54.059 35.0784 54.059C31.8466 54.059 29.37 52.4642 27.6487 49.2746C27.4785 48.9586 27.3203 48.6382 27.1743 48.3139C26.8909 47.6646 26.6839 46.9938 26.556 46.311C26.4304 45.6621 26.3576 44.9685 26.3377 44.2304C26.3341 44.0922 26.3323 43.954 26.3324 43.8158C26.3209 42.7485 26.4516 41.6834 26.7219 40.6403C27.3853 38.1914 28.8968 36.3955 31.2564 35.2526L32.6815 35.1444H32.8758C33.3833 35.1498 33.8873 35.2158 34.3725 35.3403C35.2606 35.5578 36.2423 35.9574 37.3175 36.539C37.3921 36.5795 37.4664 36.6204 37.5404 36.6617H37.7998V36.4991C36.9497 28.1604 36.4798 21.1807 36.39 15.56C36.3798 14.916 36.3747 14.2721 36.3748 13.6281V9.99691C36.3717 9.68362 36.3996 9.37065 36.4584 9.06123C36.6813 7.95387 37.3478 7.38133 38.4579 7.34359C38.4977 7.34217 38.5375 7.34143 38.5774 7.34137C38.7783 7.34456 38.9755 7.38775 39.1525 7.46735C39.5046 7.61719 39.8744 7.90041 40.2618 8.31701ZM117.36 31.405H117.489L121.377 30.9172C122.526 31.0496 123.148 31.5016 123.242 32.273C123.251 32.3447 123.256 32.4167 123.256 32.4888C123.263 32.7984 123.156 33.1023 122.95 33.3594C122.744 33.6165 122.448 33.8144 122.103 33.9262C121.533 34.1538 120.751 34.2855 119.757 34.3214C119.562 34.3282 119.368 34.3315 119.174 34.3314L117.489 34.8192L118.072 52.9751C118.041 53.2192 117.979 53.4599 117.888 53.6932C117.603 54.3929 117.055 54.766 116.242 54.8126C116.183 54.816 116.123 54.8177 116.064 54.8176C114.916 54.8176 114.244 54.2318 114.05 53.06C114.009 52.7982 113.989 52.5344 113.991 52.2703V47.9887L113.861 35.903L113.602 35.3614L110.751 35.5234C109.678 35.3311 109.081 34.8684 108.96 34.1355C108.945 34.0387 108.937 33.9412 108.937 33.8435C108.937 33.5991 109.021 33.3598 109.178 33.1536C109.335 32.9475 109.559 32.7833 109.824 32.6803C110.56 32.3359 111.754 32.1636 113.408 32.1636V31.9466C113.408 27.3219 113.494 19.2466 113.666 7.72097C113.66 7.48192 113.721 7.24496 113.845 7.02947C114.092 6.61953 114.598 6.35814 115.361 6.2453C115.487 6.22696 115.613 6.21289 115.74 6.20312C115.925 6.22084 116.1 6.28137 116.247 6.37793C116.393 6.47448 116.504 6.60324 116.568 6.74977C117.313 7.89893 117.658 10.8601 117.603 15.6332C117.599 15.9675 117.594 16.3018 117.587 16.6361C117.551 18.2478 117.518 19.8597 117.487 21.4715C117.402 25.9257 117.36 29.2369 117.36 31.405ZM310.104 31.405H310.234L314.121 30.9172C315.27 31.0496 315.892 31.5016 315.987 32.273C315.996 32.3447 316 32.4168 316 32.4888C316.007 32.7983 315.901 33.1022 315.695 33.3593C315.489 33.6164 315.193 33.8143 314.848 33.9262C314.278 34.1538 313.495 34.2855 312.501 34.3214C312.307 34.3282 312.113 34.3315 311.919 34.3314L310.234 34.8192L310.817 52.9751C310.785 53.2192 310.724 53.4599 310.632 53.6932C310.348 54.3929 309.799 54.766 308.987 54.8126C308.927 54.816 308.868 54.8177 308.808 54.8176C307.66 54.8176 306.989 54.2318 306.795 53.06C306.753 52.7982 306.733 52.5344 306.735 52.2703V47.9887L306.606 35.903L306.346 35.3614L303.496 35.5234C302.422 35.3311 301.825 34.8684 301.704 34.1355C301.689 34.0387 301.681 33.9412 301.682 33.8435C301.682 33.5991 301.765 33.3598 301.922 33.1536C302.079 32.9475 302.303 32.7833 302.568 32.6803C303.305 32.3359 304.499 32.1636 306.152 32.1636V31.9466C306.152 27.3219 306.239 19.2466 306.411 7.72097C306.405 7.48196 306.466 7.24501 306.589 7.02947C306.836 6.61953 307.342 6.35814 308.106 6.2453C308.231 6.22695 308.358 6.21288 308.485 6.20312C308.67 6.22084 308.845 6.28137 308.992 6.37793C309.138 6.47448 309.25 6.60324 309.313 6.74977C310.058 7.89893 310.402 10.8601 310.348 15.6332C310.344 15.9675 310.338 16.3018 310.331 16.6361C310.296 18.2478 310.263 19.8597 310.231 21.4715C310.147 25.9257 310.104 29.2369 310.104 31.405ZM169.968 47.447L169.449 52.2703C169.19 53.5712 168.435 54.1855 167.182 54.1134C166.938 54.102 166.698 54.0533 166.475 53.9696C165.81 53.708 165.527 53.1055 165.627 52.1621L166.08 46.9048C166.632 41.2693 166.141 38.1588 164.609 37.5735C164.46 37.5169 164.3 37.4835 164.137 37.4747C162.13 37.3319 160.672 40.4732 159.762 46.8987C159.752 46.9731 159.741 47.0474 159.731 47.1218L159.99 52.9751C159.974 53.1862 159.886 53.389 159.738 53.5603C159.59 53.7317 159.387 53.8647 159.152 53.9441C158.958 54.0188 158.731 54.0751 158.469 54.1128C158.244 54.1441 158.016 54.1623 157.787 54.1672C156.189 54.0588 155.585 52.1439 155.973 48.4227L154.418 36.0113C154.436 35.7771 154.531 35.5516 154.693 35.3602C154.856 35.1688 155.079 35.0191 155.337 34.928C155.714 34.7763 156.207 34.6858 156.816 34.6566C157.723 34.6928 158.262 35.5059 158.435 37.0957L158.695 37.1495C159.145 36.6752 159.639 36.2315 160.173 35.8226C161.543 34.7866 162.934 34.2686 164.346 34.2686C164.449 34.2687 164.552 34.2715 164.655 34.277C168.92 34.5596 170.708 38.7626 170.019 46.886C170.003 47.073 169.986 47.2601 169.968 47.447ZM232.034 47.447L231.516 52.2703C231.257 53.5712 230.501 54.1855 229.249 54.1134C229.004 54.102 228.765 54.0533 228.541 53.9696C227.877 53.708 227.594 53.1055 227.693 52.1621L228.147 46.9048C228.699 41.2693 228.208 38.1588 226.675 37.5735C226.526 37.5169 226.366 37.4835 226.203 37.4747C224.197 37.3319 222.739 40.4732 221.829 46.8987C221.819 46.9731 221.808 47.0474 221.798 47.1218L222.057 52.9751C222.04 53.1862 221.953 53.389 221.804 53.5603C221.656 53.7317 221.453 53.8647 221.219 53.9441C221.025 54.0188 220.797 54.0751 220.536 54.1128C220.311 54.1441 220.083 54.1623 219.854 54.1672C218.256 54.0588 217.652 52.1439 218.041 48.4227L216.485 36.0113C216.503 35.7771 216.598 35.5517 216.76 35.3603C216.922 35.1689 217.145 35.0192 217.404 34.928C217.781 34.7763 218.274 34.6858 218.882 34.6566C219.79 34.6928 220.33 35.5059 220.503 37.0957L220.761 37.1495C221.212 36.6752 221.706 36.2315 222.24 35.8226C223.61 34.7866 225.001 34.2686 226.412 34.2686C226.516 34.2687 226.619 34.2714 226.722 34.277C230.987 34.5596 232.775 38.7626 232.085 46.886C232.069 47.073 232.052 47.2601 232.034 47.447ZM65.7879 51.4573V51.6743C65.799 51.9311 65.7269 52.1856 65.5793 52.411C65.4317 52.6363 65.2141 52.8242 64.9494 52.9546C64.7322 53.0693 64.4732 53.1644 64.1725 53.2398C63.9796 53.2874 63.7836 53.3256 63.5854 53.3542C63.1872 53.3477 62.8056 53.2196 62.5126 52.994C62.1274 52.7191 61.7689 52.2873 61.4372 51.6987C61.3232 51.4953 61.2185 51.2883 61.1234 51.0782C60.7085 51.538 60.2567 51.9738 59.7713 52.3824C58.6722 53.2959 57.5895 53.8361 56.5231 54.0029C56.2882 54.04 56.0497 54.0588 55.8106 54.059C54.7651 54.0425 53.7308 53.8758 52.7529 53.5662C51.0337 52.9982 49.7615 51.9456 48.9362 50.4084C48.7335 50.0279 48.5629 49.636 48.4253 49.2357C48.1512 46.7541 47.9757 44.2655 47.8992 41.7741C47.8609 40.5762 47.8419 39.3779 47.8422 38.1795V37.1495C47.8422 36.0721 48.3439 35.4537 49.3475 35.2942C49.5348 35.2656 49.7249 35.2516 49.9154 35.2526C50.9088 35.2526 51.5134 35.9391 51.7292 37.3121V38.1795C51.6684 38.7811 51.6173 39.3833 51.5759 39.986C51.0992 47.0008 52.3568 50.5083 55.3489 50.5083C55.5033 50.5081 55.6576 50.4993 55.8106 50.4822C56.6109 50.0423 57.3252 49.5016 57.9283 48.8794C58.9199 47.8395 59.4738 46.5549 59.5039 45.2249V43.7076L58.7264 38.7756V38.2334C58.7264 36.8981 59.0703 36.0198 59.758 35.5984C60.1003 35.3976 60.5112 35.2954 60.929 35.307C62.0882 35.307 62.7614 36.1966 62.9485 37.9759C62.9859 38.35 63.0039 38.7253 63.0022 39.1008C63.0046 40.2715 63.038 41.4421 63.1024 42.6116C63.2138 44.706 63.418 47.0404 63.7147 49.6148C64.0024 49.7183 64.2808 49.8389 64.548 49.9755C65.3746 50.4047 65.7879 50.8986 65.7879 51.4573ZM80.1068 35.307L80.6893 39.9138C80.6915 40.1393 80.6228 40.3612 80.49 40.5574C80.3573 40.7536 80.1652 40.9171 79.9329 41.0315C79.7339 41.1422 79.4957 41.2382 79.2184 41.3196C78.9792 41.3885 78.7347 41.4439 78.4867 41.4855C78.2222 41.4672 77.9754 41.3673 77.794 41.2053C77.066 40.6518 76.2087 39.2776 75.2219 37.0829C75.1428 36.9068 75.065 36.7303 74.9884 36.5535L74.794 36.3365H74.3402C72.8249 36.3365 71.9039 37.9594 71.577 41.2053C71.5389 41.5871 71.5097 41.9696 71.4895 42.3524V43.1654C71.4822 43.982 71.5579 44.7976 71.7157 45.6034C72.2548 48.2188 73.756 49.8088 76.2191 50.3734H77.4504C78.6937 50.3734 80.5333 49.5163 82.9695 47.8022C83.1611 47.6671 83.3513 47.5306 83.54 47.3926H83.9938V47.2844C84.2955 47.3548 84.5864 47.4541 84.8609 47.5802C85.6216 47.9395 86.002 48.4732 86.002 49.1813C85.052 50.6265 83.0221 51.9271 79.9124 53.0833L76.8022 53.7338C72.742 53.7338 69.8265 51.1322 68.0555 45.9292L67.6674 43.0028V42.6776C67.6674 37.1497 69.6542 33.9521 73.6277 33.0849H74.2109L76.2191 33.2475C76.3914 33.0264 76.5968 32.8247 76.8301 32.647C77.2806 32.2982 77.8729 32.106 78.4867 32.1092C79.5402 32.1092 80.0798 33.1237 80.1054 35.1527C80.1062 35.2041 80.1066 35.2556 80.1068 35.307ZM242.4 33.2475L244.668 32.8679C245.18 32.863 245.69 32.9131 246.187 33.0172C247.375 33.2791 248.18 33.8865 248.599 34.8392C248.658 34.9746 248.709 35.1126 248.75 35.2526C248.75 35.9038 248.305 36.342 247.415 36.5673C247.257 36.6066 247.097 36.6381 246.936 36.6617H246.352C246.198 36.5713 246.036 36.489 245.869 36.4153C245.699 36.3405 245.535 36.2832 245.378 36.2432C245.211 36.1989 245.037 36.1756 244.862 36.1739H244.279C243.592 36.4112 242.94 36.7126 242.334 37.0724C240.78 38.0147 240.003 39.2327 240.003 40.7263V41.2141C240.044 41.4557 240.115 41.6931 240.215 41.9223C240.54 42.6426 241.139 43.0028 242.012 43.0028H242.595L247.066 42.2985C247.518 42.3386 247.964 42.4233 248.393 42.5511C249.556 42.9114 250.206 43.5916 250.342 44.5917C250.361 44.7299 250.37 44.8689 250.37 45.0079C250.351 46.0181 250.068 47.0127 249.541 47.9215C248.72 49.4037 247.291 50.9437 245.251 52.5417C244.656 52.9235 244.012 53.2482 243.331 53.5096C242.409 53.8664 241.407 54.0537 240.392 54.059C239.838 53.9612 239.293 53.8306 238.761 53.6683C237.506 53.2772 236.667 52.75 236.244 52.0866C236.027 51.7426 235.916 51.3588 235.922 50.97C236.03 50.7356 236.177 50.515 236.358 50.3146C236.563 50.0877 236.831 49.9056 237.139 49.7837C237.446 49.6619 237.785 49.6039 238.125 49.6148L240.133 50.8074H241.17C243.152 50.171 244.511 49.2849 245.247 48.1491C245.69 47.4493 245.915 46.6671 245.899 45.8753L245.64 45.6584C244.936 45.8673 244.206 46.0081 243.464 46.0779C242.982 46.1243 242.497 46.1471 242.012 46.1462C240.965 46.1696 239.933 45.9359 239.043 45.4741C237.562 44.6757 236.587 43.1654 236.116 40.9433C236.114 39.8785 236.377 38.825 236.888 37.8499C237.4 36.8748 238.148 35.9995 239.087 35.2798C239.902 34.6146 240.886 33.9958 242.038 33.4234C242.158 33.3638 242.279 33.3051 242.4 33.2475ZM96.1094 35.8487L99.4132 35.307L103.3 35.8487V35.686C104.251 35.686 104.985 36.3183 105.504 37.5829L105.309 40.9977V43.3824C105.305 44.2993 105.353 45.2158 105.452 46.129C105.661 47.9696 106.096 49.4784 106.757 50.6553C106.868 50.8549 106.991 51.0503 107.123 51.2408C106.795 52.0973 106.176 52.5478 105.266 52.5922C105.216 52.5945 105.165 52.5956 105.115 52.5955C104.833 52.5906 104.555 52.5341 104.302 52.4299C104.048 52.3257 103.825 52.1763 103.649 51.9923C102.967 51.3566 102.427 50.2191 102.029 48.5797C102.021 48.5453 102.013 48.5109 102.005 48.4765L101.875 47.6096H101.292C100.806 48.5907 100.195 49.5255 99.471 50.3978C98.1556 51.9558 96.5598 53.0678 94.6837 53.7338L93.7117 53.9508C90.8944 53.2929 89.1456 51.8243 88.4653 49.5448C88.2393 48.7513 88.1302 47.9376 88.1402 47.1218V46.7966C88.1098 45.0286 88.5582 43.2777 89.4518 41.6753C90.3455 40.0729 91.6613 38.6605 93.3004 37.5441C94.1801 36.9161 95.1195 36.349 96.1094 35.8487ZM142.951 34.9818L144.182 34.7648C145.965 35.3211 147.423 36.4313 148.252 37.8643C149.236 39.4227 149.826 41.5003 150.023 44.0972C150.047 44.4186 150.065 44.7404 150.077 45.0623V45.3875C150.049 46.354 149.948 47.318 149.775 48.2739C149.19 51.3921 147.801 53.3747 145.607 54.2216L143.793 54.4386C142.299 54.1648 140.915 53.5719 139.776 52.7176C137.935 51.2902 136.966 49.1205 136.869 46.2083C136.864 46.0432 136.861 45.878 136.861 45.7127V45.5501C136.861 42.4656 137.555 39.9802 138.943 38.0941C139.911 36.7681 141.298 35.6911 142.951 34.9818ZM131.698 33.9867C131.603 33.7934 131.449 33.6239 131.253 33.4945C131.057 33.365 130.824 33.28 130.577 33.2475C130.558 33.2469 130.539 33.2463 130.52 33.2458C129.949 33.2329 129.507 33.2863 129.194 33.4062C129.044 33.4545 128.913 33.5358 128.814 33.6414C128.716 33.7471 128.653 33.8731 128.633 34.0061C128.452 34.9048 128.298 35.8071 128.172 36.7122C127.736 39.8019 127.519 43.3598 127.519 47.386C127.519 47.9484 127.523 48.5108 127.531 49.0731C127.378 51.5043 127.583 53.1107 128.145 53.8925C128.231 54.034 128.355 54.1569 128.507 54.2516C128.659 54.3464 128.835 54.4104 129.021 54.4386C129.025 54.439 129.029 54.4393 129.033 54.4397C129.837 54.5485 130.524 54.2978 131.093 53.6877C131.267 53.4984 131.419 53.2961 131.548 53.0833C131.507 52.2736 131.47 51.4637 131.439 50.6537C131.231 45.1964 131.354 41.2189 131.807 38.7212C131.826 38.6201 131.845 38.5189 131.862 38.4176C132.233 36.2791 132.179 34.8022 131.698 33.9867ZM258.554 33.9867C258.458 33.7934 258.305 33.6239 258.108 33.4945C257.912 33.365 257.679 33.28 257.432 33.2475C257.413 33.2469 257.394 33.2463 257.375 33.2458C256.804 33.2329 256.362 33.2863 256.049 33.4062C255.9 33.4545 255.768 33.5358 255.67 33.6414C255.571 33.7471 255.508 33.8731 255.488 34.0061C255.307 34.9048 255.153 35.8071 255.027 36.7122C254.592 39.8019 254.374 43.3598 254.374 47.386C254.374 47.9484 254.378 48.5108 254.387 49.0731C254.234 51.5043 254.438 53.1107 255 53.8925C255.086 54.034 255.21 54.1569 255.362 54.2516C255.514 54.3464 255.69 54.4104 255.877 54.4386C255.881 54.439 255.885 54.4393 255.889 54.4397C256.692 54.5485 257.379 54.2978 257.948 53.6877C258.122 53.4984 258.274 53.2961 258.404 53.0833C258.362 52.2736 258.325 51.4637 258.294 50.6537C258.086 45.1964 258.209 41.2189 258.662 38.7212C258.681 38.6201 258.7 38.5189 258.717 38.4176C259.089 36.2791 259.034 34.8022 258.554 33.9867ZM30.2195 43.6532V44.8997C30.2099 45.6724 30.3248 46.4426 30.5611 47.1895C31.0195 48.6616 32.1542 49.9228 33.7184 50.6986L35.0784 50.8074C35.5828 50.8129 36.0773 50.6908 36.4973 50.4572C36.9173 50.2236 37.2432 49.8894 37.4323 49.4982C37.8241 48.8385 38.0636 47.9291 38.1508 46.77C38.1766 46.418 38.1892 46.0654 38.1886 45.7127V44.1949C38.2044 43.3847 38.043 42.579 37.7122 41.8174C37.1448 40.5709 36.0703 39.628 34.4886 38.9887C33.8474 38.7344 33.1767 38.5358 32.4871 38.396C31.8569 38.7257 31.3558 39.2023 31.0454 39.7673C30.5916 40.5361 30.3249 41.5508 30.2453 42.8113C30.2278 43.0917 30.2192 43.3725 30.2195 43.6532ZM92.0273 46.0918V47.8261C92.2144 48.9449 92.5507 49.7172 93.0364 50.1431C93.1706 50.2677 93.3348 50.3671 93.5182 50.4348C93.7016 50.5025 93.9 50.537 94.1005 50.536H94.2949C95.8066 50.536 98.1821 46.7243 101.421 39.1008V38.9382L99.5426 38.613H99.4132C95.9581 38.613 93.4961 41.1059 92.0273 46.0918ZM271.425 37.9082L269.158 37.6917C268.164 38.4324 267.438 39.3914 267.063 40.4599C266.816 41.1181 266.661 41.8475 266.598 42.6482C266.577 42.9286 266.566 43.2096 266.566 43.4906C266.566 45.0697 266.859 46.3391 267.444 47.2989C267.736 47.8036 268.157 48.2485 268.677 48.6019C269.197 48.9554 269.804 49.2087 270.454 49.3439H271.296C271.898 49.3547 272.489 49.21 272.989 48.9294C273.489 48.6488 273.873 48.2461 274.09 47.7761C274.603 46.8682 274.859 45.5662 274.859 43.8702C274.806 43.2173 274.718 42.5666 274.596 41.9201C274.187 39.813 273.444 38.536 272.368 38.0891C272.075 37.968 271.752 37.906 271.425 37.9082ZM140.683 45.0623V46.2544C140.977 48.3555 141.569 49.8068 142.458 50.6082C142.705 50.8435 143.011 51.0315 143.353 51.1594C143.695 51.2872 144.066 51.3519 144.441 51.349C145.607 50.265 146.19 48.1694 146.19 45.0623V44.7371C146.155 44.0726 146.096 43.4091 146.014 42.7475C145.681 40.1403 145.006 38.6897 143.988 38.396C142.974 38.7932 142.163 39.4797 141.701 40.3323C141.115 41.3235 140.783 42.6339 140.702 44.2637C140.69 44.5298 140.683 44.796 140.683 45.0623ZM130.771 29.4537H130.123C129.854 29.4583 129.586 29.4199 129.335 29.3405C128.722 29.1352 128.384 28.6512 128.32 27.8887C128.313 27.7963 128.309 27.7038 128.309 27.6112C128.375 27.3891 128.463 27.1718 128.57 26.9613C128.929 26.2743 129.446 25.9307 130.123 25.9307C131.16 25.9307 131.829 26.4544 132.129 27.5019C132.155 27.5919 132.177 27.6826 132.196 27.7738C132.191 28.0397 132.097 28.2991 131.923 28.5219C131.704 28.8186 131.353 29.1102 130.869 29.3965C130.837 29.4158 130.804 29.4349 130.771 29.4537ZM257.626 29.4537H256.978C256.709 29.4583 256.441 29.4199 256.19 29.3405C255.577 29.1352 255.239 28.6512 255.175 27.8887C255.168 27.7963 255.164 27.7038 255.164 27.6112C255.231 27.3891 255.318 27.1718 255.426 26.9613C255.784 26.2743 256.301 25.9307 256.978 25.9307C258.015 25.9307 258.684 26.4544 258.984 27.5019C259.01 27.5919 259.032 27.6826 259.051 27.7738C259.046 28.0397 258.952 28.2991 258.778 28.5219C258.559 28.8186 258.208 29.1102 257.724 29.3965C257.692 29.4158 257.659 29.4349 257.626 29.4537Z" fill="black" stroke="black" stroke-width="0.944882" stroke-linecap="round"/>
<path d="M30.7735 69.7584V68.4713H31.9551V75.6791C31.9551 76.3227 31.8181 76.8955 31.5441 77.3974C31.2701 77.8994 30.8784 78.292 30.369 78.5751C30.0106 78.7716 29.6193 78.9008 29.2146 78.9563C29.0078 78.9858 28.7991 79.0004 28.5903 78.9999C28.2372 79.0022 27.8848 78.9659 27.5396 78.8915C27.0868 78.7955 26.658 78.6091 26.2786 78.3435C25.9909 78.1461 25.7466 77.8918 25.5608 77.5962C25.375 77.3005 25.2516 76.9699 25.1981 76.6246C25.1941 76.6013 25.1904 76.5778 25.187 76.5544H26.3428C26.4712 76.9834 26.7366 77.3288 27.139 77.5905C27.4186 77.7699 27.7323 77.8892 28.0603 77.9409C28.2355 77.9696 28.4127 77.9837 28.5903 77.9831C28.8397 77.9854 29.0881 77.9504 29.3273 77.8793C29.6429 77.7836 29.9301 77.6115 30.1635 77.3781C30.4192 77.1209 30.5993 76.7981 30.6841 76.4451C30.7382 76.2354 30.7677 76.006 30.7728 75.757C30.7733 75.731 30.7735 75.7051 30.7735 75.6791V74.1989C30.5424 74.6108 30.1999 74.9541 29.7461 75.2286C29.4101 75.4294 29.0363 75.5586 28.6482 75.608C28.4843 75.63 28.319 75.6409 28.1536 75.6405C27.5286 75.6405 26.9614 75.4861 26.452 75.1772C25.9472 74.8696 25.5366 74.4289 25.2649 73.9032C25.2603 73.8945 25.2557 73.8858 25.2512 73.8772C25.0336 73.4549 24.896 72.9959 24.8453 72.5234C24.8245 72.3404 24.8142 72.1564 24.8145 71.9722C24.8145 71.2514 24.9601 70.6186 25.2512 70.0737C25.5423 69.5288 25.9425 69.1062 26.452 68.8059C26.9506 68.5135 27.5175 68.3583 28.0952 68.3558C28.1147 68.3555 28.1341 68.3554 28.1536 68.3554C28.7615 68.3554 29.2945 68.4884 29.7525 68.7544C30.2106 69.0204 30.5509 69.3551 30.7735 69.7584ZM30.7735 71.9851C30.7749 71.749 30.7513 71.5133 30.703 71.2822C30.6528 71.0423 30.5684 70.8108 30.4525 70.595C30.3188 70.3436 30.1407 70.1185 29.9269 69.9307C29.8212 69.839 29.7068 69.7575 29.5856 69.6876C29.2217 69.4774 28.8214 69.3722 28.3848 69.3722C28.0512 69.3693 27.7206 69.4361 27.4143 69.5684C27.3377 69.6019 27.263 69.6396 27.1904 69.6812C26.8664 69.8682 26.5954 70.1348 26.4028 70.456C26.3774 70.4974 26.3531 70.5394 26.33 70.5821C26.193 70.8383 26.0998 71.1157 26.0541 71.4027C26.0233 71.5909 26.0082 71.7815 26.0089 71.9722C26.0075 72.21 26.0308 72.4472 26.0782 72.6801C26.1281 72.9249 26.2129 73.1611 26.33 73.3816C26.4494 73.6083 26.6041 73.8145 26.7882 73.9925C26.91 74.1089 27.045 74.2106 27.1904 74.2955C27.55 74.5057 27.9481 74.6108 28.3848 74.6108C28.8214 74.6108 29.2217 74.5057 29.5856 74.2955C29.9187 74.1017 30.1959 73.8246 30.3903 73.4914C30.4119 73.4553 30.4326 73.4187 30.4525 73.3816C30.6665 72.9826 30.7735 72.5171 30.7735 71.9851ZM56.7928 68.4713H58L53.7619 78.8454H52.5547L53.9417 75.4474L51.1035 68.4713H52.4006L54.6095 74.1861L56.7928 68.4713ZM33.5475 73.4524C33.5732 73.8815 33.7102 74.2612 33.9585 74.5915C34.0765 74.7482 34.2145 74.8887 34.3688 75.0096C34.5541 75.1534 34.7572 75.2725 34.9731 75.3638C35.1786 75.4518 35.3926 75.5183 35.6117 75.5624C35.8793 75.6157 36.1515 75.6418 36.4243 75.6405C36.9294 75.6405 37.3768 75.5526 37.7664 75.3767C37.8668 75.3315 37.9644 75.28 38.0583 75.2225C38.3004 75.0764 38.5094 74.8812 38.6718 74.6494C38.8858 74.3405 38.9928 73.993 38.9928 73.6069C38.9909 73.4603 38.9733 73.3144 38.9403 73.1716C38.8902 72.9479 38.7871 72.7396 38.6397 72.5643C38.4128 72.2983 38.1409 72.0988 37.8242 71.9658C37.6163 71.8785 37.3678 71.7903 37.0788 71.7012C36.9171 71.6515 36.7545 71.6045 36.5913 71.5604C36.5531 71.5498 36.515 71.5391 36.477 71.5283C36.2493 71.4636 36.0522 71.4027 35.8857 71.3455C35.8056 71.3182 35.7261 71.2889 35.6473 71.2579C35.5751 71.2294 35.5047 71.1965 35.4364 71.1595C35.3064 71.0898 35.1871 71.0015 35.0822 70.8975C34.9997 70.8158 34.9374 70.7157 34.9005 70.6054C34.8711 70.5148 34.8565 70.42 34.8575 70.3247C34.8545 70.1572 34.9027 69.9927 34.9958 69.8535C35.0594 69.7615 35.1387 69.6814 35.2299 69.6168C35.2926 69.5716 35.3593 69.5324 35.4294 69.4999C35.5483 69.4443 35.6817 69.4038 35.8294 69.3784C35.9624 69.3564 36.0969 69.3457 36.2317 69.3465C36.2684 69.3465 36.3052 69.3473 36.342 69.3488C36.4986 69.3553 36.6434 69.3761 36.7766 69.4111C36.9742 69.4604 37.1587 69.5526 37.3169 69.6812C37.4556 69.7939 37.5673 69.9365 37.6435 70.0984C37.711 70.2468 37.7505 70.4065 37.7599 70.5693H38.9286C38.9245 70.4854 38.9168 70.4018 38.9054 70.3187C38.844 69.7815 38.5759 69.2896 38.1581 68.9475C37.6786 68.5528 37.0493 68.3554 36.2702 68.3554C36.088 68.3549 35.9059 68.3673 35.7254 68.3925C35.4483 68.4302 35.1778 68.5065 34.9217 68.6193C34.7974 68.6743 34.6774 68.7389 34.563 68.8125C34.3473 68.9494 34.1595 69.1263 34.0099 69.3336C33.7958 69.634 33.6888 69.9643 33.6888 70.3247C33.6888 70.3302 33.6888 70.3356 33.6888 70.3411C33.6899 70.5089 33.7072 70.6646 33.7406 70.8083C33.7902 71.0352 33.8936 71.2468 34.042 71.4252C34.2774 71.7041 34.56 71.9143 34.8896 72.0559C34.9885 72.0981 35.0885 72.1377 35.1895 72.1744C35.3277 72.2251 35.4784 72.2754 35.6417 72.3254C35.8159 72.3785 35.9912 72.4281 36.1674 72.4742C36.5708 72.5767 36.9001 72.6804 37.1553 72.785C37.2522 72.8242 37.3469 72.8686 37.4389 72.9183C37.4663 72.9332 37.493 72.9495 37.5189 72.9669C37.7395 73.1163 37.8498 73.3296 37.8498 73.6069C37.8524 73.7826 37.8019 73.9549 37.705 74.1014C37.6393 74.1981 37.558 74.2833 37.4646 74.3534C37.2077 74.5508 36.8567 74.6494 36.4115 74.6494C36.3714 74.6494 36.3313 74.6486 36.2913 74.647C36.1204 74.64 35.9621 74.6179 35.8163 74.5807C35.6115 74.5309 35.4186 74.4405 35.2492 74.3148C35.2349 74.304 35.2207 74.293 35.2068 74.2817C35.0784 74.1822 34.972 74.0572 34.8942 73.9145C34.8164 73.7717 34.7689 73.6144 34.7548 73.4524H33.5475ZM9.3391 75.5247H6V66.5535H9.21067C9.75015 66.5535 10.2189 66.6329 10.6168 66.7917C10.6667 66.8116 10.716 66.833 10.7646 66.8559C10.9485 66.9411 11.1217 67.0477 11.2807 67.1736C11.4569 67.3136 11.6081 67.4825 11.7278 67.6733C11.9357 68.0083 12.0467 68.3945 12.0485 68.7891C12.0488 68.8033 12.0489 68.8175 12.0489 68.8317C12.0505 69.0348 12.0266 69.2373 11.9779 69.4344C11.913 69.6971 11.7903 69.942 11.6187 70.151C11.3319 70.4985 10.953 70.7495 10.4821 70.9039C10.8074 70.9554 11.105 71.0884 11.3747 71.3029C11.6444 71.5174 11.8584 71.7835 12.0168 72.1009C12.1752 72.4184 12.2544 72.7574 12.2544 73.1178C12.2574 73.4371 12.1937 73.7536 12.0674 74.0468C12.0219 74.1508 11.9685 74.2512 11.9076 74.347C11.6765 74.7116 11.3404 74.9991 10.8995 75.2093C10.6393 75.3314 10.3637 75.4172 10.0802 75.4643C9.83537 75.5056 9.58741 75.5258 9.3391 75.5247ZM9.19783 71.393H7.16868V74.5593H9.23635C9.41455 74.5604 9.59248 74.5456 9.76804 74.5149C9.96667 74.4791 10.1448 74.4213 10.3026 74.3416C10.4082 74.2886 10.5072 74.2235 10.5977 74.1475C10.8604 73.9262 11.0286 73.6126 11.0678 73.2709C11.08 73.1818 11.0859 73.0919 11.0857 73.0019C11.0875 72.824 11.0622 72.6468 11.0104 72.4765C10.9308 72.2209 10.7784 71.9942 10.572 71.8242C10.366 71.6542 10.1242 71.5333 9.86488 71.4705C9.66333 71.4189 9.44098 71.393 9.19783 71.393ZM7.16868 67.5188V70.4277H9.13361C9.3 70.4287 9.46615 70.415 9.63011 70.3866C9.81205 70.3539 9.97515 70.3017 10.1194 70.2299C10.222 70.1792 10.318 70.116 10.405 70.0416C10.6436 69.837 10.7973 69.5504 10.836 69.2381C10.8486 69.1504 10.8548 69.0619 10.8545 68.9732C10.856 68.8175 10.8356 68.6623 10.7939 68.5122C10.7276 68.2754 10.5922 68.064 10.405 67.9049C10.2556 67.7794 10.0826 67.6851 9.89621 67.6278C9.67087 67.5551 9.4081 67.5188 9.10793 67.5188H7.16868ZM47.4048 75.5247H44.0657V66.5535H47.2764C47.8158 66.5535 48.2846 66.6329 48.6825 66.7917C48.7324 66.8116 48.7817 66.833 48.8303 66.8559C49.0142 66.9411 49.1874 67.0477 49.3463 67.1736C49.5226 67.3136 49.6738 67.4825 49.7935 67.6733C50.0014 68.0083 50.1124 68.3945 50.1142 68.7891C50.1145 68.8033 50.1146 68.8175 50.1146 68.8317C50.1162 69.0348 50.0923 69.2373 50.0436 69.4344C49.9787 69.6971 49.856 69.942 49.6844 70.151C49.3975 70.4985 49.0187 70.7495 48.5478 70.9039C48.8731 70.9554 49.1707 71.0884 49.4404 71.3029C49.7101 71.5174 49.9241 71.7835 50.0825 72.1009C50.2409 72.4184 50.3201 72.7574 50.3201 73.1178C50.323 73.4371 50.2594 73.7536 50.1331 74.0468C50.0876 74.1508 50.0342 74.2512 49.9733 74.347C49.7422 74.7116 49.4061 74.9991 48.9652 75.2093C48.705 75.3314 48.4294 75.4172 48.1459 75.4643C47.9011 75.5056 47.6531 75.5258 47.4048 75.5247ZM47.2635 71.393H45.2344V74.5593H47.302C47.4802 74.5604 47.6582 74.5456 47.8337 74.5149C48.0324 74.4791 48.2105 74.4213 48.3682 74.3416C48.4738 74.2886 48.5729 74.2235 48.6634 74.1475C48.9261 73.9262 49.0943 73.6126 49.1335 73.2709C49.1457 73.1818 49.1516 73.0919 49.1514 73.0019C49.1532 72.824 49.1279 72.6468 49.0761 72.4765C48.9965 72.2209 48.8441 71.9942 48.6377 71.8242C48.4317 71.6542 48.1899 71.5333 47.9306 71.4705C47.729 71.4189 47.5067 71.393 47.2635 71.393ZM45.2344 67.5188V70.4277H47.1993C47.3657 70.4287 47.5318 70.415 47.6958 70.3866C47.8777 70.3539 48.0408 70.3017 48.1851 70.2299C48.2877 70.1792 48.3837 70.116 48.4707 70.0416C48.7093 69.837 48.863 69.5504 48.9017 69.2381C48.9143 69.1504 48.9205 69.0619 48.9202 68.9732C48.9217 68.8175 48.9013 68.6623 48.8596 68.5122C48.7933 68.2754 48.6579 68.064 48.4707 67.9049C48.3213 67.7794 48.1483 67.6851 47.9619 67.6278C47.7366 67.5551 47.4738 67.5188 47.1736 67.5188H45.2344ZM18.8835 75.4465C18.6848 75.3788 18.4928 75.2929 18.3097 75.19C17.7746 74.8897 17.3551 74.4628 17.0511 73.9093C16.838 73.516 16.6985 73.0868 16.6398 72.6431C16.6096 72.4251 16.5947 72.2052 16.5952 71.9851C16.5929 71.6267 16.6361 71.2695 16.7236 70.9221C16.7995 70.6256 16.9139 70.3403 17.064 70.0737C17.3765 69.5203 17.8024 69.0955 18.3418 68.7995C18.8212 68.5389 19.3529 68.3896 19.8976 68.3628C19.9825 68.3578 20.0676 68.3554 20.1526 68.3554C20.8204 68.3554 21.4241 68.5034 21.9634 68.7995C22.5028 69.0955 22.9288 69.5181 23.2413 70.0673C23.4603 70.457 23.6038 70.8847 23.6643 71.3278C23.6953 71.5455 23.7106 71.7652 23.7101 71.9851C23.7101 72.7145 23.5495 73.3559 23.2284 73.9093C22.9074 74.4628 22.4729 74.8897 21.9249 75.19C21.4072 75.4715 20.83 75.6252 20.2412 75.6383C20.1946 75.6398 20.1479 75.6405 20.1013 75.6405C19.6875 75.6436 19.276 75.578 18.8835 75.4465ZM20.1013 74.6108C20.5208 74.6108 20.9146 74.5121 21.2828 74.3148C21.6075 74.1391 21.883 73.8846 22.084 73.5744C22.1161 73.5262 22.1465 73.4769 22.1754 73.4267C22.3069 73.1941 22.3999 72.9416 22.4506 72.6791C22.494 72.4643 22.5157 72.2329 22.5157 71.9851C22.5168 71.768 22.4984 71.5512 22.4606 71.3374C22.412 71.0705 22.3312 70.8283 22.2182 70.611C22.2065 70.5883 22.1943 70.5658 22.1818 70.5435C22.0693 70.3406 21.9279 70.1552 21.7621 69.9932C21.6268 69.8623 21.4742 69.7508 21.3085 69.6619C20.9489 69.4688 20.5593 69.3722 20.1398 69.3722C19.8222 69.3697 19.5071 69.4285 19.2118 69.5455C19.1272 69.5795 19.0447 69.6183 18.9647 69.6619C18.6717 69.8226 18.4225 70.0528 18.2386 70.3322C18.1926 70.4005 18.1499 70.4711 18.1106 70.5435C17.9091 70.9151 17.8025 71.3627 17.7907 71.8864C17.79 71.9193 17.7896 71.9522 17.7896 71.9851C17.7885 72.2038 17.8056 72.4223 17.8409 72.6382C17.8915 72.9373 17.9793 73.2044 18.1042 73.4395C18.2054 73.6335 18.3337 73.812 18.485 73.9697C18.6202 74.1092 18.7753 74.2277 18.9454 74.3212C19.2965 74.5143 19.6817 74.6108 20.1013 74.6108ZM13.8726 66H15.0412V75.5247H13.8726V66Z" fill="black"/>
<path fill-rule="evenodd" clip-rule="evenodd" d="M117.727 70.6345V75.8874H114.803V71.0521C114.803 70.5381 114.679 70.1338 114.43 69.8393C114.225 69.5956 113.943 69.4428 113.639 69.4105C113.57 69.4017 113.501 69.3974 113.431 69.3975C113.284 69.3961 113.138 69.4153 112.996 69.4546C112.767 69.5172 112.561 69.651 112.402 69.8393C112.153 70.1338 112.029 70.5381 112.029 71.0521V75.8874H109.105V64H112.029V68.1606C112.288 67.7536 112.638 67.4243 113.081 67.1727C113.523 66.921 114.033 66.7951 114.609 66.7951C114.957 66.7913 115.303 66.8444 115.636 66.9524C116.12 67.1133 116.553 67.4179 116.884 67.8313C117.413 68.481 117.693 69.3464 117.724 70.4274C117.726 70.4964 117.727 70.5654 117.727 70.6345ZM119.025 72.3694H122.142C122.161 72.6258 122.214 72.8373 122.3 73.0041C122.344 73.0914 122.402 73.1701 122.47 73.2368C122.609 73.3692 122.78 73.4564 122.962 73.4884C123.041 73.5031 123.121 73.5103 123.201 73.5099C123.3 73.5106 123.398 73.4995 123.494 73.4768C123.629 73.4457 123.755 73.3829 123.865 73.2931C123.94 73.2323 124.001 73.1549 124.046 73.0662C124.09 72.9774 124.116 72.8793 124.122 72.7787C124.125 72.7494 124.126 72.72 124.126 72.6907C124.129 72.5668 124.105 72.444 124.058 72.3312C124.01 72.2185 123.94 72.1188 123.851 72.0397C123.802 71.9947 123.749 71.9545 123.693 71.9196C123.405 71.7375 122.938 71.534 122.291 71.3091C122.069 71.2298 121.849 71.1461 121.63 71.0579C121.435 70.979 121.254 70.9009 121.087 70.8235C120.932 70.7523 120.779 70.6758 120.628 70.5943C120.268 70.3957 119.946 70.1233 119.683 69.7924C119.628 69.7243 119.575 69.6542 119.524 69.5823C119.231 69.1655 119.074 68.6285 119.056 67.9714C119.055 67.9274 119.054 67.8833 119.054 67.8393C119.052 67.5195 119.089 67.2008 119.164 66.8914C119.245 66.5607 119.38 66.2481 119.562 65.9678C119.853 65.524 120.242 65.1646 120.693 64.9219C120.782 64.8732 120.872 64.8282 120.964 64.7871C121.352 64.6154 121.759 64.4994 122.176 64.4421C122.446 64.4037 122.719 64.3848 122.992 64.3855C123.394 64.3828 123.796 64.4211 124.191 64.4998C124.872 64.64 125.449 64.9099 125.923 65.3092C126.233 65.5684 126.492 65.8907 126.686 66.2578C126.88 66.6249 127.004 67.0295 127.053 67.4485C127.074 67.5993 127.088 67.7512 127.094 67.9036H123.917C123.907 67.5609 123.81 67.3038 123.626 67.1325C123.494 67.0104 123.333 66.9293 123.161 66.8981C123.08 66.8827 122.999 66.8751 122.918 66.8755C122.834 66.8747 122.751 66.8863 122.671 66.91C122.562 66.9421 122.463 67.0019 122.381 67.0843C122.245 67.2204 122.175 67.4128 122.172 67.6615C122.172 67.6672 122.172 67.6729 122.172 67.6787C122.171 67.7781 122.19 67.8767 122.226 67.9682C122.262 68.0597 122.315 68.1423 122.382 68.2109C122.389 68.2183 122.396 68.2257 122.403 68.2329C122.497 68.3263 122.599 68.4094 122.708 68.4807C122.795 68.5379 122.885 68.5892 122.977 68.6345C123.152 68.7206 123.392 68.8239 123.695 68.9445C123.794 68.9837 123.892 69.0223 123.992 69.0602C124.227 69.1468 124.46 69.2388 124.692 69.3362C124.912 69.4292 125.116 69.5219 125.302 69.6141C125.416 69.6702 125.529 69.7293 125.64 69.7911C126.072 70.0321 126.445 70.3694 126.759 70.8031C126.967 71.0956 127.108 71.4367 127.172 71.7989C127.21 72.0133 127.229 72.2313 127.228 72.4497C127.232 72.8723 127.163 73.2921 127.026 73.6881C126.955 73.8895 126.865 74.0827 126.759 74.2649C126.507 74.6908 126.169 75.0495 125.769 75.3141C125.65 75.3945 125.528 75.4679 125.401 75.534C125.053 75.7141 124.682 75.8409 124.301 75.9107C123.972 75.9717 123.639 76.0016 123.305 75.9999C122.862 76.003 122.419 75.9559 121.985 75.8593C121.399 75.7247 120.881 75.4932 120.43 75.165C120.384 75.1311 120.338 75.0961 120.292 75.0601C119.955 74.7934 119.672 74.4551 119.461 74.0659C119.249 73.6768 119.115 73.2451 119.064 72.7976C119.045 72.6556 119.032 72.5127 119.025 72.3694ZM98.4405 70.6345V75.8874H95.5169V71.0521C95.5169 70.5381 95.3926 70.1338 95.144 69.8393C94.9387 69.5956 94.6566 69.4428 94.3526 69.4105C94.2836 69.4017 94.2141 69.3974 94.1446 69.3975C93.9979 69.3961 93.8517 69.4153 93.7095 69.4546C93.4807 69.5172 93.2741 69.651 93.1154 69.8393C92.8668 70.1338 92.7425 70.5381 92.7425 71.0521V75.8874H89.819V66.8755H92.7425V68.1606C93.0011 67.7536 93.3491 67.4243 93.7867 67.1727C94.1097 66.9893 94.4614 66.8717 94.8241 66.8258C94.9797 66.8051 95.1364 66.7948 95.2932 66.7951C95.6417 66.7914 95.9888 66.8437 96.323 66.9502C96.814 67.1096 97.2532 67.415 97.5902 67.8313C97.9326 68.2552 98.1751 68.7617 98.2974 69.3079C98.3808 69.6589 98.4278 70.0414 98.4382 70.4552C98.4397 70.5149 98.4405 70.5747 98.4405 70.6345ZM159.402 70.3292H156.3C156.257 70.1835 156.196 70.0448 156.118 69.9172C155.932 69.62 155.664 69.4633 155.317 69.4472C155.296 69.4462 155.276 69.4457 155.256 69.4457C155.101 69.4433 154.948 69.477 154.806 69.5445C154.642 69.6254 154.501 69.7558 154.383 69.9357C154.295 70.0741 154.227 70.2263 154.182 70.3871C154.102 70.659 154.062 70.9878 154.062 71.3734C154.062 71.5525 154.072 71.7314 154.092 71.9091C154.113 72.0853 154.146 72.2456 154.19 72.3899C154.235 72.5423 154.3 72.6869 154.383 72.8192C154.589 73.1388 154.866 73.3046 155.215 73.3165C155.229 73.317 155.242 73.3172 155.256 73.3172C155.676 73.3172 155.982 73.1298 156.175 72.7551C156.227 72.6528 156.269 72.5451 156.3 72.4336H159.402C159.193 73.5474 158.726 74.4202 158 75.0521C157.428 75.5455 156.74 75.8569 156.012 75.9512C155.781 75.9841 155.548 76.0004 155.315 75.9999C154.898 76.0026 154.482 75.9493 154.078 75.8411C153.742 75.7503 153.419 75.6147 153.115 75.4376C152.474 75.0628 151.974 74.5273 151.616 73.8312C151.381 73.3677 151.223 72.8637 151.148 72.3417C151.101 72.0215 151.078 71.6977 151.079 71.3734C151.077 70.9592 151.116 70.5459 151.197 70.1408C151.282 69.718 151.423 69.3107 151.616 68.9317C151.974 68.2356 152.474 67.7001 153.115 67.3253C153.605 67.0423 154.142 66.8641 154.695 66.8004C154.901 66.7752 155.108 66.7627 155.315 66.763C155.754 66.7593 156.191 66.8198 156.615 66.9429C157.12 67.0916 157.591 67.3502 158 67.7028C158.562 68.1915 158.983 68.8426 159.213 69.5797C159.292 69.8244 159.356 70.0749 159.402 70.3292ZM107.897 70.3292H104.795C104.752 70.1835 104.691 70.0448 104.613 69.9172C104.427 69.62 104.159 69.4633 103.812 69.4472C103.791 69.4462 103.771 69.4457 103.751 69.4457C103.596 69.4433 103.443 69.477 103.301 69.5445C103.137 69.6254 102.996 69.7558 102.878 69.9357C102.79 70.0741 102.722 70.2263 102.677 70.3871C102.597 70.659 102.557 70.9878 102.557 71.3734C102.557 71.5525 102.567 71.7314 102.587 71.9091C102.608 72.0853 102.641 72.2456 102.685 72.3899C102.73 72.5423 102.795 72.6869 102.878 72.8192C103.084 73.1388 103.361 73.3046 103.71 73.3165C103.724 73.317 103.737 73.3172 103.751 73.3172C104.171 73.3172 104.477 73.1298 104.67 72.7551C104.722 72.6528 104.764 72.5451 104.795 72.4336H107.897C107.688 73.5474 107.221 74.4202 106.495 75.0521C105.923 75.5455 105.235 75.8569 104.507 75.9512C104.276 75.9841 104.043 76.0004 103.81 75.9999C103.393 76.0026 102.977 75.9493 102.573 75.8411C102.237 75.7503 101.914 75.6147 101.61 75.4376C100.969 75.0628 100.469 74.5273 100.111 73.8312C99.8762 73.3677 99.7179 72.8637 99.6434 72.3417C99.5962 72.0215 99.573 71.6977 99.5741 71.3734C99.5719 70.9592 99.6115 70.5459 99.6921 70.1408C99.7765 69.718 99.9177 69.3107 100.111 68.9317C100.469 68.2356 100.969 67.7001 101.61 67.3253C102.1 67.0423 102.637 66.8641 103.19 66.8004C103.396 66.7752 103.603 66.7627 103.81 66.763C104.249 66.7593 104.686 66.8198 105.11 66.9429C105.615 67.0916 106.086 67.3502 106.495 67.7028C107.057 68.1915 107.477 68.8426 107.708 69.5797C107.787 69.8244 107.851 70.0749 107.897 70.3292ZM150.318 72.016H144.785C144.792 72.1586 144.811 72.3004 144.841 72.4397C144.873 72.5868 144.917 72.718 144.973 72.8333C145.024 72.9375 145.088 73.0329 145.165 73.1164C145.389 73.3573 145.675 73.4778 146.023 73.4778C146.46 73.4778 146.785 73.2883 146.998 72.9093C147.023 72.8644 147.046 72.8183 147.067 72.771H150.184C150.055 73.3921 149.804 73.9463 149.431 74.4336C149.068 74.904 148.614 75.2825 148.1 75.5423C148.074 75.5559 148.048 75.5692 148.021 75.5822C147.553 75.8097 147.05 75.9457 146.537 75.9839C146.406 75.9946 146.274 75.9999 146.142 75.9999C145.725 76.0026 145.309 75.9493 144.904 75.8411C144.569 75.7503 144.246 75.6147 143.942 75.4376C143.3 75.0628 142.798 74.5273 142.435 73.8312C142.194 73.3625 142.033 72.8513 141.958 72.3217C141.912 72.008 141.89 71.6909 141.891 71.3734C141.889 70.9626 141.927 70.5526 142.005 70.1504C142.088 69.7211 142.231 69.3076 142.428 68.9236C142.786 68.2329 143.285 67.7001 143.927 67.3253C144.398 67.0536 144.912 66.8789 145.442 66.8099C145.674 66.7782 145.908 66.7625 146.142 66.763C146.546 66.7604 146.949 66.8092 147.343 66.9082C147.688 66.9961 148.021 67.1308 148.335 67.3092C148.971 67.6733 149.468 68.1954 149.826 68.8754C150.066 69.338 150.226 69.8435 150.299 70.3675C150.343 70.6684 150.364 70.9725 150.363 71.277C150.363 71.5233 150.348 71.7696 150.318 72.016ZM136.536 72.016H131.002C131.01 72.1586 131.029 72.3004 131.058 72.4397C131.09 72.5868 131.134 72.718 131.191 72.8333C131.241 72.9375 131.306 73.0329 131.382 73.1164C131.606 73.3573 131.892 73.4778 132.24 73.4778C132.677 73.4778 133.002 73.2883 133.215 72.9093C133.24 72.8644 133.263 72.8183 133.284 72.771H136.402C136.272 73.3921 136.021 73.9463 135.648 74.4336C135.286 74.904 134.832 75.2825 134.318 75.5423C134.292 75.5559 134.265 75.5692 134.239 75.5822C133.77 75.8097 133.268 75.9457 132.755 75.9839C132.623 75.9946 132.491 75.9999 132.359 75.9999C131.942 76.0026 131.527 75.9493 131.122 75.8411C130.787 75.7503 130.463 75.6147 130.159 75.4376C129.518 75.0628 129.016 74.5273 128.653 73.8312C128.412 73.3625 128.25 72.8513 128.176 72.3217C128.13 72.008 128.107 71.6909 128.108 71.3734C128.106 70.9626 128.144 70.5526 128.223 70.1504C128.306 69.7211 128.448 69.3076 128.645 68.9236C129.003 68.2329 129.503 67.7001 130.144 67.3253C130.615 67.0536 131.129 66.8789 131.659 66.8099C131.892 66.7782 132.125 66.7625 132.359 66.763C132.764 66.7604 133.167 66.8092 133.561 66.9082C133.906 66.9961 134.239 67.1308 134.552 67.3092C135.189 67.6733 135.686 68.1954 136.044 68.8754C136.284 69.338 136.444 69.8435 136.517 70.3675C136.56 70.6684 136.582 70.9725 136.581 71.277C136.581 71.5233 136.566 71.7696 136.536 72.016ZM68.2057 75.8874H63V64.5622H68.0416C68.3707 64.5602 68.6994 64.588 69.0241 64.6453C69.6437 64.7586 70.159 64.9879 70.5699 65.3333C70.83 65.5493 71.0447 65.8221 71.2 66.1338C71.3553 66.4455 71.4477 66.789 71.4711 67.1418C71.482 67.2615 71.4874 67.3817 71.4872 67.502C71.4891 67.7654 71.4601 68.028 71.401 68.2836C71.3267 68.604 71.1909 68.9041 71.0024 69.1646C70.6793 69.609 70.2492 69.9116 69.7122 70.0722C70.0324 70.1464 70.3369 70.2844 70.61 70.4791C70.8286 70.638 71.0216 70.8343 71.1814 71.0602C71.5444 71.5688 71.7259 72.1498 71.7259 72.8031C71.7291 73.1403 71.6852 73.4762 71.5958 73.7994C71.4547 74.2984 71.1779 74.7404 70.8011 75.0681C70.4845 75.3428 70.1206 75.5473 69.7303 75.6696C69.4297 75.7683 69.0987 75.8335 68.7371 75.8651C68.5603 75.8802 68.3831 75.8877 68.2057 75.8874ZM85.2249 68.1285V66.8755H88.1484V75.8874H85.2249V74.6344C85.0071 75.0296 84.6972 75.3566 84.326 75.5832C84.3002 75.5993 84.2741 75.6151 84.2479 75.6304C83.9667 75.7919 83.662 75.9007 83.3469 75.9521C83.154 75.9846 82.959 76.0006 82.7637 75.9999C82.0975 75.9999 81.4934 75.8124 80.9514 75.4376C80.5206 75.1364 80.1584 74.7346 79.8916 74.2619C79.81 74.1201 79.7356 73.9736 79.6687 73.8232C79.4775 73.3887 79.3454 72.9269 79.2764 72.4519C79.2235 72.0953 79.1975 71.7346 79.1988 71.3734C79.1968 70.9616 79.2311 70.5505 79.3011 70.1456C79.3737 69.7254 79.4972 69.3172 79.6687 68.9317C79.8245 68.579 80.0251 68.2514 80.2647 67.9582C80.4657 67.7145 80.6968 67.5015 80.9514 67.3253C81.4934 66.9504 82.0975 66.763 82.7637 66.763C83.3405 66.763 83.8377 66.8862 84.2553 67.1325C84.5503 67.3029 84.811 67.5344 85.0226 67.8138C85.0971 67.9132 85.1647 68.0184 85.2249 68.1285ZM164.697 73.2047H165.548V75.8874H164.28C163.858 75.8936 163.438 75.8386 163.03 75.7237C162.077 75.4389 161.472 74.7827 161.215 73.7551C161.115 73.3338 161.068 72.9004 161.073 72.4658V69.4939H160.044V66.8755H161.073V64.6908H164.011V66.8755H165.533V69.4939H164.011V72.514C164.011 72.7603 164.063 72.937 164.168 73.0441C164.266 73.1445 164.427 73.1979 164.652 73.2041C164.667 73.2045 164.682 73.2047 164.697 73.2047ZM78.632 66.7951V70.1525H77.8116C77.6451 70.1517 77.4788 70.1624 77.3136 70.1843C76.9225 70.2384 76.6161 70.3617 76.3946 70.5541C76.0863 70.8219 75.9322 71.2877 75.9322 71.9517V75.8874H73.0086V66.8755H75.9322V68.4658C76.1764 68.0778 76.4795 67.7369 76.8288 67.4571C76.9244 67.3812 77.0234 67.3104 77.1255 67.2449C77.5928 66.9451 78.095 66.7951 78.632 66.7951ZM182 66.7951V70.1525H181.18C181.013 70.1517 180.847 70.1624 180.682 70.1843C180.29 70.2384 179.984 70.3617 179.763 70.5541C179.454 70.8219 179.3 71.2877 179.3 71.9517V75.8874H176.377V66.8755H179.3V68.4658C179.544 68.0778 179.848 67.7369 180.197 67.4571C180.292 67.3812 180.391 67.3104 180.493 67.2449C180.961 66.9451 181.463 66.7951 182 66.7951ZM137.774 64H140.698V75.8874H137.774V64ZM169.456 75.822C169.889 75.9431 170.336 76.0029 170.783 75.9999C170.962 76.0001 171.141 75.9911 171.319 75.973C171.918 75.9167 172.501 75.7348 173.035 75.4376C173.702 75.0628 174.226 74.5246 174.609 73.8232C174.992 73.1217 175.183 72.3051 175.183 71.3734C175.184 71.1062 175.167 70.8393 175.133 70.5747C175.061 69.995 174.883 69.4365 174.609 68.9317C174.226 68.2356 173.704 67.7001 173.043 67.3253C172.751 67.1603 172.443 67.0314 172.125 66.9408C171.692 66.8198 171.246 66.76 170.798 66.763C169.963 66.763 169.214 66.9504 168.553 67.3253C167.892 67.7001 167.37 68.2356 166.987 68.9317C166.791 69.2906 166.644 69.6786 166.552 70.0833C166.457 70.5056 166.41 70.9389 166.413 71.3734C166.412 71.6706 166.432 71.9674 166.474 72.2613C166.549 72.8143 166.72 73.347 166.98 73.8312C167.357 74.5273 167.877 75.0628 168.538 75.4376C168.83 75.6026 169.138 75.7315 169.456 75.822ZM84.8794 70.1264C84.8497 70.0852 84.8182 70.0457 84.7848 70.008C84.6524 69.8529 84.4919 69.7288 84.3132 69.6432C84.1345 69.5577 83.9414 69.5125 83.7458 69.5105C83.7317 69.5101 83.7176 69.5099 83.7034 69.51C83.504 69.5075 83.3061 69.5465 83.1204 69.6248C82.9285 69.7089 82.7559 69.8369 82.6146 69.9999C82.4449 70.1954 82.3232 70.4335 82.2605 70.6924C82.2082 70.8956 82.182 71.1226 82.182 71.3734C82.1806 71.5653 82.199 71.7569 82.2366 71.9445C82.2914 72.2074 82.3872 72.436 82.524 72.6303C82.5525 72.6707 82.5827 72.7096 82.6146 72.7469C82.7442 72.9028 82.9024 73.0281 83.0792 73.115C83.256 73.2019 83.4475 73.2485 83.6418 73.2518C83.6624 73.2525 83.6829 73.2529 83.7034 73.2529C83.899 73.2569 84.0933 73.2176 84.2742 73.1375C84.4552 73.0575 84.619 72.9383 84.7555 72.7874C84.7654 72.7767 84.7752 72.7659 84.7848 72.7549C85.0629 72.4403 85.2092 72.0102 85.2237 71.4648C85.2245 71.4343 85.2249 71.4039 85.2249 71.3734C85.2249 70.8611 85.1097 70.4454 84.8794 70.1264ZM170.783 73.269C170.964 73.2728 171.143 73.2365 171.31 73.1624C171.477 73.0883 171.627 72.978 171.753 72.8383C171.771 72.819 171.788 72.7992 171.805 72.779C172.078 72.4524 172.215 71.9838 172.215 71.3734C172.216 71.1958 172.203 71.0185 172.175 70.8434C172.143 70.6479 172.091 70.4728 172.021 70.3182C171.964 70.1936 171.892 70.0783 171.805 69.9758C171.531 69.6545 171.196 69.4939 170.798 69.4939C170.621 69.4904 170.446 69.5262 170.283 69.5991C170.12 69.672 169.972 69.7804 169.85 69.9175C169.832 69.9365 169.815 69.956 169.799 69.9758C169.578 70.2401 169.448 70.6023 169.409 71.0624C169.4 71.1658 169.396 71.2696 169.396 71.3734C169.396 71.7857 169.453 72.1319 169.567 72.4121C169.621 72.5482 169.694 72.6746 169.784 72.787C169.895 72.9303 170.034 73.0468 170.19 73.1293C170.345 73.2118 170.516 73.2584 170.689 73.2661C170.72 73.268 170.752 73.269 170.783 73.269ZM67.609 71.2931H65.9235V73.3493H67.624C68.3598 73.3493 68.7278 73.0173 68.7278 72.3533C68.7286 72.2462 68.7176 72.1394 68.6949 72.0351C68.6572 71.8533 68.5668 71.6891 68.4369 71.5662C68.3351 71.4726 68.2161 71.4032 68.0877 71.3625C67.949 71.3162 67.7894 71.2931 67.609 71.2931ZM65.9235 67.0682V69.0602H67.4002C68.1361 69.0602 68.504 68.7335 68.504 68.0803C68.504 67.443 68.1757 67.1066 67.5191 67.0713C67.4795 67.0692 67.4399 67.0682 67.4002 67.0682H65.9235ZM144.799 70.4899H147.38C147.381 70.3557 147.364 70.2221 147.33 70.0931C147.276 69.8938 147.169 69.716 147.022 69.5823C146.833 69.4093 146.6 69.3003 146.353 69.2687C146.278 69.258 146.203 69.2528 146.127 69.2529C145.993 69.2518 145.86 69.2686 145.73 69.3027C145.552 69.3491 145.387 69.4393 145.247 69.5662C145.018 69.775 144.869 70.0829 144.799 70.4899ZM131.017 70.4899H133.598C133.599 70.3557 133.582 70.2221 133.548 70.0931C133.494 69.8938 133.387 69.716 133.24 69.5823C133.05 69.4093 132.818 69.3003 132.571 69.2687C132.496 69.258 132.42 69.2528 132.345 69.2529C132.211 69.2518 132.077 69.2686 131.948 69.3027C131.77 69.3491 131.604 69.4393 131.465 69.5662C131.236 69.775 131.087 70.0829 131.017 70.4899Z" fill="black"/>
</svg>
