<svg width="26" height="19" viewBox="0 0 26 19" fill="none" xmlns="http://www.w3.org/2000/svg">
<path d="M24.5417 15.8333H3.16667V0.791667C3.16667 0.354271 2.8124 0 2.375 0H0.791667C0.354271 0 0 0.354271 0 0.791667V17.4167C0 18.291 0.709036 19 1.58333 19H24.5417C24.9791 19 25.3333 18.6457 25.3333 18.2083V16.625C25.3333 16.1876 24.9791 15.8333 24.5417 15.8333ZM22.9583 1.58333H17.1168C16.059 1.58333 15.529 2.86237 16.2772 3.61049L17.8803 5.21362L14.25 8.8444L10.6197 5.21412C10.0012 4.59563 8.99878 4.59563 8.38078 5.21412L4.98206 8.61284C4.67281 8.92208 4.67281 9.42331 4.98206 9.73255L6.10128 10.8518C6.41052 11.161 6.91175 11.161 7.22099 10.8518L9.5 8.57227L13.1303 12.2026C13.7488 12.821 14.7512 12.821 15.3692 12.2026L20.1192 7.45255L21.7223 9.05568C22.4705 9.8038 23.7495 9.27388 23.7495 8.21602V2.375C23.75 1.9376 23.3957 1.58333 22.9583 1.58333Z" fill="black"/>
</svg>
