<svg width="25" height="19" viewBox="0 0 25 19" fill="none" xmlns="http://www.w3.org/2000/svg">
<path d="M11.8927 4.9291L4.07252 11.3699V18.3214C4.07252 18.5013 4.14402 18.674 4.27129 18.8012C4.39856 18.9285 4.57118 19 4.75117 19L9.50424 18.9877C9.68364 18.9868 9.85539 18.9149 9.98192 18.7877C10.1085 18.6606 10.1795 18.4885 10.1795 18.3091V14.2495C10.1795 14.0695 10.251 13.8969 10.3783 13.7696C10.5055 13.6423 10.6782 13.5708 10.8581 13.5708H13.5727C13.7527 13.5708 13.9253 13.6423 14.0526 13.7696C14.1799 13.8969 14.2514 14.0695 14.2514 14.2495V18.3061C14.2511 18.3954 14.2684 18.4839 14.3024 18.5664C14.3364 18.649 14.3864 18.7241 14.4494 18.7873C14.5124 18.8506 14.5874 18.9008 14.6698 18.935C14.7523 18.9692 14.8407 18.9869 14.93 18.9869L19.6814 19C19.8614 19 20.034 18.9285 20.1613 18.8012C20.2886 18.674 20.3601 18.5013 20.3601 18.3214V11.3652L12.5416 4.9291C12.4497 4.85501 12.3352 4.81461 12.2171 4.81461C12.0991 4.81461 11.9846 4.85501 11.8927 4.9291ZM24.2453 9.3068L20.6994 6.38395V0.508985C20.6994 0.373994 20.6458 0.244532 20.5503 0.149078C20.4548 0.0536252 20.3254 0 20.1904 0H17.8151C17.6801 0 17.5507 0.0536252 17.4552 0.149078C17.3598 0.244532 17.3061 0.373994 17.3061 0.508985V3.58877L13.5087 0.464449C13.1443 0.164563 12.687 0.000599477 12.215 0.000599477C11.7431 0.000599477 11.2858 0.164563 10.9213 0.464449L0.184719 9.3068C0.133179 9.3494 0.0905374 9.40173 0.0592314 9.46082C0.0279254 9.5199 0.00856824 9.58458 0.0022659 9.65115C-0.00403645 9.71772 0.00283957 9.78487 0.0225011 9.84878C0.0421626 9.91269 0.0742242 9.9721 0.116854 10.0236L1.19845 11.3385C1.24096 11.3902 1.29325 11.433 1.35233 11.4645C1.41141 11.4959 1.47611 11.5154 1.54273 11.5218C1.60935 11.5283 1.67659 11.5215 1.74059 11.5019C1.80458 11.4823 1.86409 11.4503 1.91569 11.4076L11.8927 3.19007C11.9846 3.11598 12.0991 3.07557 12.2171 3.07557C12.3352 3.07557 12.4497 3.11598 12.5416 3.19007L22.519 11.4076C22.5705 11.4503 22.6299 11.4823 22.6938 11.502C22.7577 11.5216 22.8249 11.5285 22.8915 11.5222C22.958 11.5159 23.0227 11.4966 23.0818 11.4653C23.1409 11.434 23.1932 11.3913 23.2358 11.3398L24.3174 10.0249C24.36 9.97308 24.3919 9.91336 24.4114 9.84917C24.4308 9.78498 24.4373 9.71759 24.4306 9.65086C24.4239 9.58412 24.4041 9.51938 24.3723 9.46033C24.3405 9.40129 24.2973 9.34911 24.2453 9.3068Z" fill="black"/>
</svg>
