<svg width="250" height="275" viewBox="0 0 250 275" fill="none" xmlns="http://www.w3.org/2000/svg">
<g clip-path="url(#clip0_1036_1132)">
<path d="M78.3864 247.65L2.05078 89.2209L2.37277 89.0592L179.549 0L179.694 0.315707L249.676 152.756L249.377 152.921L78.3864 247.65ZM2.97284 89.565L78.6706 246.67L248.778 152.431L179.242 0.961995L2.97284 89.565Z" fill="#919191"/>
<path d="M11.7665 89.3571L-0.533298 98.4139L14.4854 129.712L42.153 109.057L36.1177 95.4286L11.7665 89.3571Z" fill="url(#paint0_angular_1036_1132)"/>
<path d="M167.017 117.238C165.563 117.238 164.141 116.764 162.932 115.877C161.723 114.989 160.78 113.728 160.224 112.252C159.667 110.776 159.522 109.151 159.805 107.585C160.089 106.018 160.789 104.578 161.818 103.449C162.846 102.319 164.156 101.55 165.583 101.238C167.009 100.927 168.487 101.087 169.831 101.698C171.174 102.309 172.323 103.345 173.131 104.673C173.939 106.001 174.37 107.563 174.37 109.16C174.368 111.302 173.592 113.355 172.214 114.869C170.835 116.384 168.966 117.235 167.017 117.238ZM167.017 101.817C165.695 101.817 164.403 102.248 163.303 103.055C162.204 103.862 161.347 105.009 160.841 106.35C160.335 107.692 160.203 109.169 160.461 110.593C160.719 112.017 161.356 113.326 162.29 114.353C163.225 115.38 164.416 116.079 165.713 116.362C167.01 116.646 168.354 116.5 169.575 115.945C170.796 115.389 171.84 114.448 172.575 113.24C173.309 112.032 173.701 110.613 173.701 109.16C173.701 107.213 172.997 105.345 171.744 103.968C170.49 102.591 168.79 101.817 167.017 101.817Z" fill="#3F3D56"/>
<path d="M41.017 94.107C39.5627 94.107 38.1411 93.6333 36.9319 92.7457C35.7227 91.8582 34.7803 90.5966 34.2238 89.1207C33.6672 87.6447 33.5216 86.0206 33.8054 84.4538C34.0891 82.8869 34.7894 81.4476 35.8177 80.318C36.846 79.1883 38.1562 78.419 39.5825 78.1074C41.0089 77.7957 42.4873 77.9556 43.8309 78.567C45.1744 79.1784 46.3228 80.2137 47.1308 81.542C47.9387 82.8703 48.3699 84.432 48.3699 86.0296C48.3677 88.1711 47.5924 90.2242 46.2139 91.7385C44.8354 93.2528 42.9665 94.1046 41.017 94.107ZM41.017 78.6865C39.6949 78.6865 38.4026 79.1171 37.3033 79.924C36.204 80.7309 35.3473 81.8777 34.8413 83.2195C34.3354 84.5613 34.203 86.0377 34.461 87.4622C34.7189 88.8866 35.3555 90.195 36.2904 91.222C37.2252 92.2489 38.4163 92.9483 39.7129 93.2316C41.0096 93.5149 42.3536 93.3695 43.5751 92.8137C44.7965 92.258 45.8405 91.3168 46.575 90.1092C47.3095 88.9016 47.7015 87.4819 47.7015 86.0296C47.7015 84.0821 46.9972 82.2143 45.7437 80.8372C44.4901 79.4601 42.7898 78.6865 41.017 78.6865Z" fill="#3F3D56"/>
<path d="M159.622 239.393L156.072 185.284L156.747 167.225L142.91 170.607L148.007 241.507C147.43 242.814 147.191 244.27 147.316 245.716C147.441 247.163 147.926 248.543 148.718 249.707C149.509 250.871 150.577 251.773 151.804 252.316C153.031 252.858 154.37 253.019 155.674 252.782C156.979 252.544 158.199 251.917 159.202 250.969C160.204 250.021 160.949 248.789 161.357 247.407C161.764 246.025 161.818 244.546 161.512 243.133C161.206 241.719 160.553 240.426 159.622 239.393Z" fill="#9E616A"/>
<path d="M36.3297 134.438L23.095 124.988C22.6936 123.54 21.9231 122.249 20.8746 121.267C19.8261 120.285 18.5435 119.654 17.1786 119.448C15.8137 119.242 14.4236 119.469 13.1728 120.104C11.922 120.738 10.8627 121.753 10.1205 123.028C9.37822 124.303 8.98397 125.785 8.98438 127.299C8.98479 128.812 9.37984 130.294 10.1228 131.568C10.8658 132.843 11.9255 133.857 13.1767 134.491C14.4279 135.124 15.8181 135.351 17.1829 135.144C17.2791 135.13 17.3712 135.104 17.4658 135.085L31.6531 146.421L36.3297 134.438Z" fill="#9E616A"/>
<path d="M54.213 166.992L22.7539 141.457L34.1595 131.745L48.0135 143.268L99.1083 120.5C99.8604 120.36 100.631 120.387 101.373 120.581C102.115 120.775 102.814 121.132 103.428 121.629C104.034 122.116 104.545 122.732 104.929 123.441C105.314 124.15 105.565 124.937 105.666 125.755L105.691 125.948L96.3253 142.025L54.213 166.992Z" fill="#6C63FF"/>
<path d="M146.555 222.697L137.691 155.018L137.706 154.955L146.809 115.646L147.661 115.537C150.121 115.24 152.593 115.96 154.594 117.558C156.595 119.157 157.982 121.518 158.482 124.18L159.157 224.774L146.555 222.697Z" fill="#6C63FF"/>
<path d="M149.349 105.033H103.281V82.1687C103.281 78.8458 103.877 75.5554 105.035 72.4855C106.192 69.4155 107.889 66.6261 110.028 64.2764C112.167 61.9268 114.706 60.063 117.5 58.7913C120.295 57.5197 123.29 56.8652 126.315 56.8652C129.34 56.8652 132.335 57.5197 135.13 58.7913C137.924 60.063 140.464 61.9268 142.603 64.2764C144.741 66.6261 146.438 69.4155 147.596 72.4855C148.753 75.5554 149.349 78.8458 149.349 82.1687V105.033Z" fill="#2F2E41"/>
<path d="M139.099 99.6617C146.451 91.5847 146.451 78.4895 139.099 70.4126C131.746 62.3357 119.825 62.3357 112.473 70.4126C105.121 78.4895 105.121 91.5847 112.473 99.6617C119.825 107.739 131.746 107.739 139.099 99.6617Z" fill="#9E616A"/>
<path d="M134.876 67.4903C141.798 67.4903 147.409 61.3263 147.409 53.7227C147.409 46.119 141.798 39.9551 134.876 39.9551C127.955 39.9551 122.344 46.119 122.344 53.7227C122.344 61.3263 127.955 67.4903 134.876 67.4903Z" fill="#2F2E41"/>
<path d="M146.815 86.1317H97.8164V85.8269C97.8164 71.8744 108.807 60.5234 122.316 60.5234C135.825 60.5234 146.815 71.8744 146.815 85.8269V86.1317Z" fill="#2F2E41"/>
<path d="M154.683 118.138L154.677 118.072C154.636 117.473 154.486 116.889 154.236 116.355C153.986 115.82 153.641 115.347 153.222 114.961C152.803 114.576 152.317 114.287 151.794 114.111C151.272 113.935 150.722 113.876 150.178 113.938L101.02 119.46C100.236 119.548 99.4911 119.884 98.8758 120.425C98.2604 120.967 97.8004 121.693 97.551 122.514L93.9313 134.432C93.0858 135.46 81.8625 149.603 88.5438 168.938L91.047 184.74L86.4749 194.132C77.0899 205.187 71.6253 231.053 70.2383 269.472C81.2475 273.108 92.6828 274.949 104.179 274.936C104.272 274.936 104.366 274.936 104.459 274.932L107.558 250.428L114.235 274.466C125.167 273.458 135.914 270.763 146.161 266.458L138.316 206.924L136.746 184.49L154.667 118.197L154.683 118.138Z" fill="#2F2E41"/>
</g>
<defs>
<radialGradient id="paint0_angular_1036_1132" cx="0" cy="0" r="1" gradientUnits="userSpaceOnUse" gradientTransform="translate(19.775 107.886) rotate(104) scale(22.4572 25.6626)">
<stop stop-color="#4584FF"/>
<stop offset="1" stop-color="#2A4F99"/>
</radialGradient>
<clipPath id="clip0_1036_1132">
<rect width="250" height="275" fill="white"/>
</clipPath>
</defs>
</svg>
