<svg width="592" height="415" viewBox="0 0 592 415" fill="none" xmlns="http://www.w3.org/2000/svg">
<path d="M370.996 146.696L303.316 227.887L237.495 184.248L304.094 101.696L370.996 146.696Z" fill="#3270FD"/>
<path d="M370.784 142.755L303.164 223.903L240.123 182.095L307.699 97.2577L370.784 142.755Z" fill="white"/>
<path d="M382.388 139.858L314.709 221.038L248.876 177.398L315.487 94.847L382.388 139.858Z" fill="#1C8BF7"/>
<path d="M247.362 176.701C247.362 176.701 238.31 182.539 236.206 183.833C266.157 143.161 273.485 133.487 305.173 95.2631C305.173 95.2631 307.339 90.8001 313.028 94.6606L247.362 176.701Z" fill="#3270FD"/>
<path d="M297.357 127.525C297.357 127.525 322.832 144.734 338.695 155.45" stroke="#E7DDFB" stroke-width="4.37778" stroke-miterlimit="10"/>
<path d="M305.648 119.084C305.648 119.084 320.432 129.071 331.323 136.429" stroke="#E7DDFB" stroke-width="4.37778" stroke-miterlimit="10"/>
<path d="M74.8809 288.459L91.6278 307.493" stroke="#86C1FA" stroke-width="8" stroke-linecap="round" stroke-linejoin="round"/>
<path d="M86.4972 306.265L92.0631 302.215C92.9425 301.576 94.1908 301.672 94.8524 302.428L104.64 313.634C105.301 314.391 105.124 315.523 104.245 316.163L98.6781 320.212C97.7993 320.851 96.5504 320.756 95.8896 319.999L86.1027 308.793C85.4418 308.036 85.6185 306.904 86.4972 306.265Z" fill="#B3D5FF"/>
<path d="M351.006 390.918H379.672C383.469 390.918 386.547 393.569 386.547 396.838V408.322C386.547 411.592 383.469 414.242 379.672 414.242H351.006C347.211 414.242 344.133 411.592 344.133 408.322V396.838C344.133 393.569 347.211 390.918 351.006 390.918Z" fill="#A2B8FF"/>
<path d="M370.074 401.969L364.233 399.392C364.033 399.304 363.788 399.372 363.686 399.544C363.656 399.593 363.641 399.647 363.641 399.702V404.859C363.64 405.052 363.821 405.21 364.046 405.211C364.111 405.211 364.175 405.197 364.233 405.172L370.074 402.592C370.274 402.503 370.352 402.291 370.249 402.119C370.21 402.055 370.149 402.002 370.074 401.969Z" fill="#4400FF"/>
<path d="M1.89029 106.194L9.52634 112.776C27.5608 128.335 42.1122 146.683 52.4504 166.905L53.5804 169.116C53.5804 169.116 73.9376 170.939 77.2859 154.873C60.0231 137.3 45.4742 117.828 34.0056 96.9418L30.5119 89.371L1.89029 106.194Z" fill="#73A7FF"/>
<path d="M30.1218 89.3443C31.0885 90.6116 25.4604 95.4 17.5307 100.039C9.6017 104.679 2.35919 107.461 1.39245 106.194C0.425725 104.926 6.08769 100.082 14.0174 95.4429C21.9471 90.8034 29.1445 88.0769 30.1218 89.3443Z" fill="#4F04FF"/>
<path d="M30.1545 89.4116C30.1545 89.4116 14.2233 100.709 7.76331 101.813L9.67867 104.187C12.3892 102.943 15.0197 101.57 17.5582 100.074C25.3649 95.4729 30.9568 90.7424 30.1545 89.4116Z" fill="#4F04FF"/>
<path d="M50.4521 122.938C50.3967 124.922 49.3201 133.446 32.8559 136.77C33.8956 138.056 34.9348 139.36 35.974 140.663C46.3813 138.129 51.1556 133.571 53.3504 130.078C53.6887 129.52 54.1071 128.785 54.3924 128.217C53.0494 126.485 51.736 124.725 50.4521 122.938Z" fill="#4F04FF"/>
<path d="M34.38 134.193L10.2852 133.164L15.8862 137.453L12.3265 142.809L35.2881 138.013L34.38 134.193Z" fill="#4F04FF"/>
<path d="M36.5255 139.117L27.6512 151.95L33.6898 150.03L35.8921 154.16L40.2706 140.61L36.5255 139.117Z" fill="#4F04FF"/>
<path d="M39.6644 142.679C35.3173 143.005 31.5275 140.207 31.1981 136.428C30.8688 132.649 34.1254 129.321 38.4719 128.994C42.819 128.668 46.6102 131.466 46.9395 135.245C46.9447 135.312 46.9498 135.379 46.9535 135.447C47.2156 139.173 43.953 142.411 39.6672 142.679L39.6644 142.679Z" fill="#4F04FF"/>
<path d="M557.701 6.4701L556.914 12.3121C555.048 26.1143 550.636 39.3447 543.898 51.3407L543.161 52.6522C543.161 52.6522 548.948 62.545 558.108 58.2588C561.238 44.0788 566.214 30.4435 572.913 17.6948L575.56 13.3746L557.701 6.4701Z" fill="#73A7FF"/>
<path d="M575.443 13.1866C575.125 14.083 570.871 13.2603 565.934 11.3396C560.997 9.41935 557.217 7.13939 557.535 6.24299C557.852 5.34637 562.146 6.16433 567.083 8.08517C572.02 10.0058 575.756 12.2854 575.443 13.1866Z" fill="#4F04FF"/>
<path d="M575.421 13.2273C575.421 13.2273 564.51 10.0829 561.83 7.55154L561.27 9.27804C562.786 10.0581 564.341 10.7551 565.927 11.3661C570.804 13.2448 575.017 14.0721 575.421 13.2273Z" fill="#4F04FF"/>
<path d="M565.29 34.5474C564.277 35.239 559.647 37.8306 552.56 31.5635C552.258 32.4995 551.946 33.4422 551.634 34.3846C556.331 38.1896 560.189 38.7084 562.663 38.4418C563.054 38.3937 563.561 38.3179 563.94 38.242C564.366 37.0072 564.816 35.7755 565.29 34.5474Z" fill="#4F04FF"/>
<path d="M554.353 31.3247L546.938 20.0234L546.63 24.1139L542.772 24.4343L552.737 33.1169L554.353 31.3247Z" fill="#4F04FF"/>
<path d="M552.59 34.0762L543.233 34.6875L546.183 36.7332L544.837 39.2244L553.074 36.3145L552.59 34.0762Z" fill="#4F04FF"/>
<path d="M551.837 36.7854C550.242 34.9317 550.398 32.2013 552.185 30.6867C553.972 29.1718 556.713 29.4465 558.308 31.2999C559.903 33.1539 559.747 35.8849 557.96 37.3995C557.928 37.4261 557.896 37.4527 557.864 37.4787C556.081 38.944 553.384 38.634 551.838 36.7867L551.837 36.7854Z" fill="#4F04FF"/>
<path d="M419.034 207.982C422.237 207.982 424.835 210.219 424.835 212.978C424.835 215.737 422.237 217.974 419.034 217.974C415.83 217.974 413.232 215.737 413.232 212.978C413.232 210.219 415.83 207.982 419.034 207.982Z" fill="#4400FF"/>
<path d="M262.622 313C265.825 313 268.423 315.237 268.423 317.996C268.423 320.755 265.825 322.992 262.622 322.992C259.418 322.992 256.82 320.755 256.82 317.996C256.82 315.237 259.418 313 262.622 313Z" fill="#4400FF"/>
<path d="M103.622 51C106.825 51 109.423 53.2368 109.423 55.9959C109.423 58.755 106.825 60.9919 103.622 60.9919C100.418 60.9919 97.8203 58.755 97.8203 55.9959C97.8203 53.2368 100.418 51 103.622 51Z" fill="#4400FF"/>
<path d="M159.138 132.814L171.378 143.357L159.138 153.898L146.896 143.357L159.138 132.814Z" fill="#4400FF"/>
<path d="M571.179 318.178C569.507 316.167 566.376 315.68 564.186 317.089L562.815 317.965L561.764 316.708C560.093 314.697 556.961 314.208 554.771 315.617C552.582 317.026 552.157 319.796 553.821 321.81L554.872 323.069L560.926 330.362L568.87 325.258L570.239 324.372C572.424 322.959 572.844 320.191 571.179 318.178Z" fill="#4600FB"/>
<path d="M443.308 136.723C440.843 135.723 437.853 136.723 436.619 138.958L435.865 140.334L434.32 139.705C431.855 138.699 428.861 139.699 427.632 141.939L427.632 141.94C426.4 144.172 427.392 146.799 429.848 147.808C429.855 147.81 429.862 147.813 429.868 147.815L431.403 148.443L440.338 152.095L444.79 143.975L445.558 142.581C446.766 140.342 445.761 137.728 443.308 136.723Z" fill="#A2B8FF"/>
<path d="M20.3222 280.043C22.8135 280.043 24.8342 281.783 24.8342 283.929C24.8342 286.075 22.8135 287.814 20.3222 287.814C17.8301 287.814 15.8086 286.075 15.8086 283.929C15.8086 281.783 17.8301 280.043 20.3222 280.043Z" fill="#4A0DFF"/>
<path d="M492.024 192.654L507.617 189.823L517.096 224.277L501.505 227.119C490.941 228.891 480.385 222.588 477.926 213.043C475.519 203.7 481.764 194.67 492.024 192.654Z" fill="#3A82E6"/>
<path d="M552.478 182.811L555.661 182.208C558.22 181.737 560.804 183.267 561.441 185.632L567.498 208.495C568.123 210.862 566.562 213.165 564.006 213.649L560.823 214.241L552.478 182.811Z" fill="#4B00FB"/>
<path d="M513.867 179.949L538.203 159.716C541.264 157.161 544.614 158.168 545.636 161.947L565.627 235.707C566.65 239.487 564.138 241.574 560.055 240.35L527.59 230.587L513.867 179.949Z" fill="#3A82E6"/>
<path d="M51.5762 364.396L30.7299 363.093C30.1203 363.049 29.5852 363.438 29.5332 363.963C29.5177 364.121 29.5487 364.28 29.6225 364.426L37.0639 379.54C37.3015 380.031 37.9562 380.263 38.527 380.057C38.694 379.998 38.8407 379.904 38.9565 379.785L52.3497 365.964C52.7458 365.563 52.6883 364.961 52.2223 364.62C52.0406 364.487 51.8139 364.409 51.5762 364.396Z" fill="#11AFF7"/>
<path d="M175.537 239.451C178.073 241.626 178.898 244.877 177.647 247.765C167.288 271.696 145.368 290.57 117.579 299.487C114.229 300.571 110.45 299.864 107.925 297.678L72.209 266.92L139.832 208.693L175.537 239.451Z" fill="#ACD5FF"/>
<path d="M160.406 201.236L89.7632 225.469C88.9908 225.737 88.3801 226.266 88.0744 226.933L59.9347 287.76C59.3113 289.092 60.0589 290.607 61.6058 291.144C62.3753 291.412 63.2388 291.395 63.9935 291.096L132.038 264.57C132.71 264.311 133.249 263.85 133.554 263.274L164.28 204.74C164.971 203.427 164.296 201.881 162.771 201.285C162.024 200.994 161.169 200.975 160.406 201.236Z" fill="#1C8BF7"/>
<path d="M73.3184 287.462L95.9711 239.479" stroke="#83C1FF" stroke-width="8" stroke-linecap="round" stroke-linejoin="round"/>
</svg>
