<?xml version="1.0" encoding="UTF-8"?>
<!DOCTYPE svg PUBLIC "-//W3C//DTD SVG 1.1//EN" "http://www.w3.org/Graphics/SVG/1.1/DTD/svg11.dtd">
<svg xmlns="http://www.w3.org/2000/svg" version="1.1" width="1024px" height="1024px" style="shape-rendering:geometricPrecision; text-rendering:geometricPrecision; image-rendering:optimizeQuality; fill-rule:evenodd; clip-rule:evenodd" xmlns:xlink="http://www.w3.org/1999/xlink">
<g><path style="opacity:1" fill="#fefefe" d="M -0.5,-0.5 C 340.833,-0.5 682.167,-0.5 1023.5,-0.5C 1023.5,340.833 1023.5,682.167 1023.5,1023.5C 682.167,1023.5 340.833,1023.5 -0.5,1023.5C -0.5,682.167 -0.5,340.833 -0.5,-0.5 Z"/></g>
<g><path style="opacity:1" fill="#282828" d="M 708.5,587.5 C 671.943,587.478 636.61,593.812 602.5,606.5C 588.756,611.54 575.756,617.873 563.5,625.5C 558.405,627.797 553.405,629.963 548.5,632C 591.382,590.737 642.715,568.903 702.5,566.5C 692.833,531.833 683.167,497.167 673.5,462.5C 661.121,466.345 648.788,470.345 636.5,474.5C 625.576,534.09 590.576,570.423 531.5,583.5C 527.28,613.153 521.447,642.486 514,671.5C 512.973,674.754 511.473,677.754 509.5,680.5C 507.514,677.044 506.014,673.378 505,669.5C 498.463,641.314 492.629,612.981 487.5,584.5C 437.776,573.273 404.61,543.606 388,495.5C 385.968,488.642 384.801,481.642 384.5,474.5C 371.663,471.11 358.996,467.11 346.5,462.5C 345.914,462.709 345.414,463.043 345,463.5C 334.865,497.406 325.031,531.406 315.5,565.5C 374.976,568.468 426.476,589.801 470,629.5C 470.688,630.332 470.521,630.998 469.5,631.5C 465.66,628.948 461.66,626.948 457.5,625.5C 449.836,620.06 441.503,615.56 432.5,612C 393.113,596.089 352.113,587.923 309.5,587.5C 303.794,587.829 298.128,587.495 292.5,586.5C 307.712,531.652 323.545,476.985 340,422.5C 340.388,421.572 341.055,420.905 342,420.5C 351.486,425.746 361.653,428.246 372.5,428C 369.561,432.042 367.894,436.542 367.5,441.5C 361.833,441.5 356.167,441.5 350.5,441.5C 349.376,447.829 347.71,453.996 345.5,460C 357.971,457.296 370.304,453.796 382.5,449.5C 393.124,388.208 428.79,350.541 489.5,336.5C 495.526,307.041 502.192,277.708 509.5,248.5C 511.304,253.045 512.804,257.712 514,262.5C 519.363,287.081 524.196,311.747 528.5,336.5C 583.844,348.011 619.011,381.011 634,435.5C 634.994,440.118 635.494,444.785 635.5,449.5C 645.786,452.428 656.12,455.261 666.5,458C 668.5,458.667 670.5,458.667 672.5,458C 670.41,452.566 668.41,447.066 666.5,441.5C 661.588,441.642 656.588,441.308 651.5,440.5C 650.158,436.143 648.825,431.809 647.5,427.5C 652.899,427.691 658.233,427.191 663.5,426C 668.497,424.058 673.497,422.224 678.5,420.5C 693.506,472.854 708.673,525.188 724,577.5C 725.043,580.757 725.543,584.09 725.5,587.5C 719.833,587.5 714.167,587.5 708.5,587.5 Z"/></g>
<g><path style="opacity:1" fill="#f9f9f9" d="M 508.5,303.5 C 509.222,303.918 509.722,304.584 510,305.5C 515.143,350.12 519.477,394.787 523,439.5C 514.106,434.247 505.273,434.247 496.5,439.5C 499.198,399.513 503.032,359.513 508,319.5C 508.499,314.177 508.666,308.844 508.5,303.5 Z"/></g>
<g><path style="opacity:1" fill="#2d2d2d" d="M 569.5,308.5 C 574.408,309.954 579.074,311.954 583.5,314.5C 580.961,321.45 578.628,328.45 576.5,335.5C 571.354,334.732 566.687,332.899 562.5,330C 564.541,322.711 566.874,315.545 569.5,308.5 Z"/></g>
<g><path style="opacity:1" fill="#2c2c2c" d="M 447.5,308.5 C 448.496,308.414 449.329,308.748 450,309.5C 452.682,316.709 454.849,324.043 456.5,331.5C 451.833,332.833 447.167,334.167 442.5,335.5C 439.964,327.894 437.631,320.227 435.5,312.5C 439.759,311.691 443.759,310.358 447.5,308.5 Z"/></g>
<g><path style="opacity:1" fill="#2b2b2b" d="M 631.5,344.5 C 638.784,343.795 643.117,346.962 644.5,354C 643.71,360.407 640.044,363.573 633.5,363.5C 631.029,363.205 628.863,362.205 627,360.5C 623.834,353.646 625.334,348.313 631.5,344.5 Z"/></g>
<g><path style="opacity:1" fill="#2b2b2b" d="M 381.5,344.5 C 391.06,343.889 395.226,348.223 394,357.5C 391.081,363.025 386.581,364.858 380.5,363C 373.533,356.234 373.866,350.068 381.5,344.5 Z"/></g>
<g><path style="opacity:1" fill="#fbfbfb" d="M 479.5,368.5 C 480.978,368.238 482.311,368.571 483.5,369.5C 480.189,385.389 477.522,401.389 475.5,417.5C 464.787,412.731 453.954,408.065 443,403.5C 442.5,403.833 442,404.167 441.5,404.5C 447.106,414.102 453.106,423.435 459.5,432.5C 444.266,436.578 428.932,440.245 413.5,443.5C 420.006,412.488 437.34,389.655 465.5,375C 470.377,373.058 475.044,370.892 479.5,368.5 Z"/></g>
<g><path style="opacity:1" fill="#fbfbfb" d="M 536.5,367.5 C 565.989,377.491 587.489,396.491 601,424.5C 603.603,430.578 605.103,436.911 605.5,443.5C 590.097,440.149 574.764,436.483 559.5,432.5C 566.328,423.513 572.662,414.179 578.5,404.5C 577.833,404.167 577.167,403.833 576.5,403.5C 565.6,407.018 555.267,411.684 545.5,417.5C 541.851,400.994 538.851,384.327 536.5,367.5 Z"/></g>
<g><path style="opacity:1" fill="#292929" d="M 335.5,368.5 C 343.054,372.194 350.221,376.527 357,381.5C 356.033,385.775 354.2,389.775 351.5,393.5C 350.277,394.614 348.944,394.781 347.5,394C 341.249,390.292 335.083,386.459 329,382.5C 330.316,377.53 332.482,372.863 335.5,368.5 Z"/></g>
<g><path style="opacity:1" fill="#2c2c2c" d="M 682.5,369.5 C 684.371,369.859 685.871,370.859 687,372.5C 689.034,375.706 690.867,379.04 692.5,382.5C 684.5,386.833 676.5,391.167 668.5,395.5C 664.807,391.114 662.473,386.114 661.5,380.5C 668.938,377.615 675.938,373.948 682.5,369.5 Z"/></g>
<g><path style="opacity:1" fill="#fbfbfb" d="M 532.5,447.5 C 568.061,453.07 603.728,457.904 639.5,462C 604.723,465.311 570.056,469.478 535.5,474.5C 534.833,474.167 534.167,473.833 533.5,473.5C 537.635,464.613 537.302,455.946 532.5,447.5 Z"/></g>
<g><path style="opacity:1" fill="#f8f8f8" d="M 477.5,449.5 C 480.247,449.187 482.914,449.52 485.5,450.5C 482.917,458.127 482.917,465.793 485.5,473.5C 484.167,473.833 482.833,474.167 481.5,474.5C 448.85,470.135 416.183,465.969 383.5,462C 415.05,458.307 446.384,454.141 477.5,449.5 Z"/></g>
<g><path style="opacity:1" fill="#f9f9f9" d="M 506.5,451.5 C 517.032,451.199 521.199,456.199 519,466.5C 514.782,471.63 509.616,472.796 503.5,470C 497.528,462.666 498.528,456.5 506.5,451.5 Z"/></g>
<g><path style="opacity:1" fill="#282828" d="M 477.5,679.5 C 435.219,644.913 386.552,630.079 331.5,635C 309.716,636.69 288.382,640.69 267.5,647C 266.536,648.725 265.869,650.559 265.5,652.5C 263.385,658.338 262.218,664.338 262,670.5C 305.221,656.329 349.388,652.496 394.5,659C 431.248,665.292 463.414,680.792 491,705.5C 491.521,717.687 497.854,724.354 510,725.5C 522.117,724.382 528.45,717.715 529,705.5C 560.055,676.734 596.888,660.568 639.5,657C 679.042,654.187 717.709,658.687 755.5,670.5C 756.231,668.599 756.231,666.599 755.5,664.5C 754.295,658.473 752.961,652.473 751.5,646.5C 740.761,644.319 730.094,641.819 719.5,639C 708.922,637.063 698.255,635.896 687.5,635.5C 628.168,629.777 576.501,646.944 532.5,687C 531.748,687.671 531.414,688.504 531.5,689.5C 528.203,692.296 525.036,695.296 522,698.5C 519.42,696.128 516.587,694.128 513.5,692.5C 543.599,652.954 583.265,628.787 632.5,620C 671.211,612.635 709.878,612.801 748.5,620.5C 733.505,572.513 718.505,524.513 703.5,476.5C 713.478,475.501 723.478,475.168 733.5,475.5C 734.351,480.225 735.518,484.892 737,489.5C 755.652,543.955 773.818,598.622 791.5,653.5C 791.333,654.167 791.167,654.833 791,655.5C 785.85,654.784 780.85,653.451 776,651.5C 779.058,664.379 783.058,677.046 788,689.5C 790.06,703.764 783.894,709.264 769.5,706C 727.805,693.246 685.138,687.58 641.5,689C 627.977,690.741 614.644,693.408 601.5,697C 586.659,702.09 572.326,708.256 558.5,715.5C 556.837,734.345 546.837,746.512 528.5,752C 505.244,759.619 485.077,754.785 468,737.5C 462.41,731.229 459.91,723.896 460.5,715.5C 440.553,705.015 419.553,697.182 397.5,692C 359.522,686.158 321.856,687.825 284.5,697C 270.939,700.713 257.273,704.046 243.5,707C 235.192,707.365 230.526,703.365 229.5,695C 233.716,680.848 238.049,666.682 242.5,652.5C 237.565,653.127 232.732,654.127 228,655.5C 227.833,654.833 227.667,654.167 227.5,653.5C 247.036,594.226 266.369,534.893 285.5,475.5C 295.167,475.5 304.833,475.5 314.5,475.5C 300.466,523.621 285.799,571.621 270.5,619.5C 270.833,619.833 271.167,620.167 271.5,620.5C 324.962,609.254 377.296,613.087 428.5,632C 459.887,645.221 485.887,665.387 506.5,692.5C 504.038,693.794 501.705,695.294 499.5,697C 498.5,697.667 497.5,697.667 496.5,697C 490.597,690.593 484.263,684.759 477.5,679.5 Z"/></g>
<g><path style="opacity:1" fill="#fbfbfb" d="M 413.5,481.5 C 428.571,484.114 443.571,487.114 458.5,490.5C 452.77,498.902 447.437,507.569 442.5,516.5C 443,516.833 443.5,517.167 444,517.5C 454.015,513.243 463.848,508.576 473.5,503.5C 474.896,505.972 475.73,508.638 476,511.5C 477.999,524.823 479.832,538.156 481.5,551.5C 445.676,541.008 423.009,517.675 413.5,481.5 Z"/></g>
<g><path style="opacity:1" fill="#fbfbfb" d="M 602.5,480.5 C 603.5,480.5 604.5,480.5 605.5,480.5C 596.347,516.656 574.014,540.656 538.5,552.5C 538.167,551.5 537.833,550.5 537.5,549.5C 540.052,534.191 542.385,518.858 544.5,503.5C 555.231,508.091 565.898,513.091 576.5,518.5C 576.833,518.167 577.167,517.833 577.5,517.5C 572.425,508.264 566.758,499.431 560.5,491C 574.589,487.349 588.589,483.849 602.5,480.5 Z"/></g>
<g><path style="opacity:1" fill="#fcfcfc" d="M 496.5,484.5 C 504.667,489.284 513,489.617 521.5,485.5C 521.833,487.167 522.167,488.833 522.5,490.5C 518.996,539.229 514.83,587.896 510,636.5C 504.285,585.941 499.785,535.274 496.5,484.5 Z"/></g>
<g><path style="opacity:1" fill="#c8c8c8" d="M 309.5,587.5 C 352.113,587.923 393.113,596.089 432.5,612C 441.503,615.56 449.836,620.06 457.5,625.5C 431.845,615.676 405.512,608.176 378.5,603C 354.554,600.268 330.554,599.768 306.5,601.5C 307.191,596.74 308.191,592.074 309.5,587.5 Z"/></g>
<g><path style="opacity:1" fill="#c7c7c7" d="M 708.5,587.5 C 709.657,592.464 710.657,597.464 711.5,602.5C 674.089,598.006 637.422,601.34 601.5,612.5C 601.918,611.778 602.584,611.278 603.5,611C 602.051,609.883 600.384,609.216 598.5,609C 600.32,608.8 601.653,607.966 602.5,606.5C 636.61,593.812 671.943,587.478 708.5,587.5 Z"/></g>
<g><path style="opacity:1" fill="#acacac" d="M 602.5,606.5 C 601.653,607.966 600.32,608.8 598.5,609C 600.384,609.216 602.051,609.883 603.5,611C 602.584,611.278 601.918,611.778 601.5,612.5C 588.684,616.438 576.018,620.772 563.5,625.5C 575.756,617.873 588.756,611.54 602.5,606.5 Z"/></g>
<g><path style="opacity:1" fill="#cacaca" d="M 477.5,679.5 C 475.504,680.062 473.504,679.562 471.5,678C 453.956,663.461 433.956,653.461 411.5,648C 371.776,638.304 332.442,639.637 293.5,652C 284.123,655.842 275.123,660.342 266.5,665.5C 266.121,661.03 265.788,656.697 265.5,652.5C 265.869,650.559 266.536,648.725 267.5,647C 288.382,640.69 309.716,636.69 331.5,635C 386.552,630.079 435.219,644.913 477.5,679.5 Z"/></g>
<g><path style="opacity:1" fill="#d1d1d1" d="M 687.5,635.5 C 698.255,635.896 708.922,637.063 719.5,639C 730.094,641.819 740.761,644.319 751.5,646.5C 752.961,652.473 754.295,658.473 755.5,664.5C 754.768,663.192 753.934,661.858 753,660.5C 752.695,662.557 752.695,664.557 753,666.5C 737.908,656.545 721.408,649.712 703.5,646C 682.982,641.957 662.316,640.79 641.5,642.5C 647.092,641.222 652.758,639.722 658.5,638C 656.212,637.178 653.878,636.511 651.5,636C 663.495,635.5 675.495,635.333 687.5,635.5 Z"/></g>
<g><path style="opacity:1" fill="#c1c1c1" d="M 687.5,635.5 C 675.495,635.333 663.495,635.5 651.5,636C 653.878,636.511 656.212,637.178 658.5,638C 652.758,639.722 647.092,641.222 641.5,642.5C 599.933,646.063 563.933,661.897 533.5,690C 532.563,690.692 531.897,690.525 531.5,689.5C 531.414,688.504 531.748,687.671 532.5,687C 576.501,646.944 628.168,629.777 687.5,635.5 Z"/></g>
</svg>
