
<svg version="1.1" id="Ebene_1" xmlns="http://www.w3.org/2000/svg" xmlns:xlink="http://www.w3.org/1999/xlink" x="0px" y="0px"
	 viewBox="0 0 976.5 229.2" style="enable-background:new 0 0 976.5 229.2;" xml:space="preserve">
<style type="text/css">
	.st0{fill-rule:evenodd;clip-rule:evenodd;fill:#1E1F1D;}
	.st1{fill-rule:evenodd;clip-rule:evenodd;fill:#FBDE2A;}
</style>
<g>
	<g>
		<path class="st0" d="M271.6,174.2V56.8H301v15.4h4.3c1.9-4.1,5.4-8,10.7-11.7c5.2-3.7,13.1-5.6,23.7-5.6c9.2,0,17.2,2.1,24,6.3
			c6.9,4.2,12.2,9.9,16,17.3c3.8,7.3,5.7,15.9,5.7,25.7v70.1h-29.8v-67.7c0-8.8-2.2-15.5-6.5-19.9c-4.3-4.4-10.5-6.6-18.6-6.6
			c-9.2,0-16.3,3-21.3,9.1c-5.1,6.1-7.6,14.6-7.6,25.4v59.7L271.6,174.2z"/>
		<path class="st0" d="M462.4,151c9.2,0,16.7-3,22.7-8.9c6-5.9,9-14.4,9-25.4v-2.4c0-11-3-19.5-8.9-25.4c-5.9-5.9-13.5-8.9-22.8-8.9
			c-9.2,0-16.7,3-22.7,8.9c-6,5.9-9,14.4-9,25.4v2.4c0,11,3,19.5,9,25.4C445.6,148,453.2,151,462.4,151z M462.4,177.5
			c-11.7,0-22.2-2.4-31.5-7.1c-9.3-4.7-16.7-11.6-22-20.6c-5.4-9-8-19.8-8-32.4v-3.8c0-12.6,2.7-23.4,8-32.4
			c5.4-9,12.7-15.9,22-20.6c9.3-4.7,19.8-7.1,31.5-7.1c11.7,0,22.2,2.4,31.5,7.1c9.3,4.7,16.6,11.6,22,20.6c5.4,9,8,19.8,8,32.4v3.8
			c0,12.6-2.7,23.4-8,32.4c-5.4,9-12.7,15.9-22,20.6C484.5,175.1,474.1,177.5,462.4,177.5z"/>
		<path class="st0" d="M539.5,174.2V56.8h29.4V70h4.3c1.7-4.7,4.8-7.9,8.8-10.1c4-2.2,8.5-3.1,13.9-3.1H610v24.6h-14.7
			c-8.6,0.2-13.8,3.4-18.7,7.5c-4.9,4-7.3,10.2-7.3,18.6v66.8L539.5,174.2z"/>
		<path class="st0" d="M651.9,174.2c-7.7,0-14-2.4-18.8-7.2c-4.8-4.8-7.2-11.2-7.2-19.3V81.4h-29.4V56.8h29.4V20.3h29.8v36.5h32.2
			v24.6h-32.2v61.1c0,4.7,2.2,7.1,6.6,7.1h22.7v24.6L651.9,174.2z"/>
		<path class="st0" d="M754.6,151c9.2,0,16.7-3,22.7-8.9c6-5.9,9-14.4,9-25.4v-2.4c0-11-3-19.5-8.9-25.4c-5.9-5.9-13.5-8.9-22.8-8.9
			c-9.2,0-16.7,3-22.7,8.9c-6,5.9-9,14.4-9,25.4v2.4c0,11,3,19.5,9,25.4C737.9,148,745.5,151,754.6,151z M754.6,177.5
			c-11.7,0-22.2-2.4-31.5-7.1c-9.3-4.7-16.7-11.6-22-20.6c-5.4-9-8.1-19.8-8.1-32.4v-3.8c0-12.6,2.7-23.4,8.1-32.4
			c5.4-9,12.7-15.9,22-20.6c9.3-4.7,19.8-7.1,31.5-7.1c11.7,0,22.2,2.4,31.5,7.1c9.3,4.7,16.6,11.6,22,20.6c5.4,9,8,19.8,8,32.4v3.8
			c0,12.6-2.7,23.4-8,32.4c-5.4,9-12.7,15.9-22,20.6C776.8,175.1,766.3,177.5,754.6,177.5z"/>
		<path class="st0" d="M831.7,174.2V56.8h29.4v15.4h4.3c1.9-4.1,5.4-8,10.7-11.7c5.2-3.7,13.1-5.6,23.7-5.6c9.2,0,17.2,2.1,24,6.3
			c6.9,4.2,12.2,9.9,16,17.3s5.7,15.9,5.7,25.7v70.1h-29.8v-67.7c0-8.8-2.2-15.5-6.5-19.9c-4.3-4.4-10.5-6.6-18.6-6.6
			c-9.2,0-16.3,3-21.3,9.1c-5,6.1-7.6,14.6-7.6,25.4v59.7L831.7,174.2z"/>
	</g>
	<path class="st1" d="M224.9,114.6c0,60.8-49.5,110.3-110.3,110.3c-60.8,0-110.3-49.5-110.3-110.3C4.3,53.7,53.7,4.3,114.6,4.3
		c16.8,0,32.8,3.8,47,10.5l-18.3,23.6c-8.9-3.4-18.6-5.2-28.7-5.2c-42.9,0-78.2,33.3-81.2,75.5c-0.1,0.9-0.1,1.7-0.1,2.6
		c0,1.1-0.1,2.2-0.1,3.4c0,44.9,36.5,81.4,81.4,81.4c44.9,0,81.4-36.5,81.4-81.4c0-6-0.7-11.9-1.9-17.5l21.3-27.4
		C221.5,83.4,224.9,98.6,224.9,114.6"/>
	<path class="st0" d="M202.4,47.9l-83.8,108l-53.2-47.6l19.3-21.6l30.1,26.9l67.1-86.4C189.6,33.2,196.5,40.1,202.4,47.9"/>
	<path class="st0" d="M956.7,70.5V56.7h4.9l2.6,11.4h0.6l2.6-11.4h4.9v13.8h-2.6V59.1h-0.6l-2.6,11.4h-4l-2.6-11.4h-0.6v11.4H956.7z
		 M947.7,70.5V59.1h-4.5v-2.4h11.6v2.4h-4.5v11.4H947.7z"/>
</g>
</svg>
