<svg version="1.2" xmlns="http://www.w3.org/2000/svg" viewBox="0 0 1056 853" width="1056" height="853">
	<title>waiting__for_you</title>
	<style>
		.s0 { fill: #3f3d56 } 
		.s1 { fill: #ff6584 } 
		.s2 { opacity: .1;fill: #000000 } 
		.s3 { fill: #367af3 } 
	</style>
	<path id="Layer" class="s0" d="m502.4 830.8c-138.5 0-250.3-4-250.3-8.9 0-5 111.8-8.9 250.3-8.9 138.4 0 250.3 3.9 250.3 8.9 0 4.9-111.9 8.9-250.3 8.9z"/>
	<path id="Layer" class="s1" d="m385.7 422.5c-49.5 0-89.6-40.1-89.6-89.6 0-49.5 40.1-89.6 89.6-89.6 49.5 0 89.5 40.1 89.5 89.6 0 49.5-40 89.6-89.5 89.6z"/>
	<path id="Layer" class="s0" d="m280.2 798.4c-41.8 0-75.5-3.1-75.5-6.9 0-3.9 33.7-7 75.5-7 41.7 0 75.4 3.1 75.4 7 0 3.8-33.7 6.9-75.4 6.9z"/>
	<path id="Layer" class="s0" d="m417.7 822.5c0 0 62.6-167.1 28.1-269.9-34.5-102.8-61.9-98.8-61.9-98.8 0 0-46.5-12-104.4 23.3-57.8 35.4-73.1 45.8-106 31.3-32.9-14.4-39.4-36.9-119.7-34.5 0 0 42.6-23.3 84.4-2.4 41.7 20.9 69.8 32.1 112.4 0 42.6-32.1 101.2-73.9 158.2-49 0 0-41.7-41-55.4-41-13.6 0-77.9-6.4-98.8-28.1 0 0-29.7-20.9-82.7 30.5-53 51.4-40.2 51.4-87.6 47.4-47.4-4-84.3-27.3-84.3-27.3 0 0 55.4 22.5 89.2 11.3 33.7-11.3 62.6-53.8 92.3-68.3 29.7-14.5 47.4-33.7 87.6-12.9 0 0-16.9-69-49-63.4-32.1 5.6 15.2-16.1 15.2-16.1 0 0-8.8-117.2-25.7-125.3-16.8-8-6.4-28.9-37.7-32.9 0 0 38.5-4.8 45.8 21.7 7.2 26.5 57 169.5 57 169.5 0 0 30.5 61 64.3 46.5 33.7-14.4-12.9-95.5-12.9-95.5l-57.8-26.5c0 0 43.4-1.7 69.9 23.2 26.5 24.9 28.1 105.3 28.1 105.3 0 0 66.6 9.6 82.7 45.8 0 0 10.4-32.2-9.6-51.5-5.1-4.8-10.3-13.2-15.4-23-19.4-37.7-26-80.7-19.9-122.7 3-20.6 4.8-40.7 1.5-45.4-7.2-10.5-37.7-74.7-40.1-91.6-2.4-16.9 2.4-52.2 2.4-52.2 0 0 0.8 43.4 10.4 57 9.7 13.7 37 81.2 37 81.2 0 0 0 85.1 22.5 126.9 22.4 41.7 65.8 88.3 63.4 118.8v17.7c0 0 48.2-45.8 45-61-3.2-15.3-7.2-51.4-37.8-73.1-30.5-21.7-50.6-56.3-28.9-106.1 21.7-49.8 21.7-58.6 21.7-58.6l-14.4 61.9c0 0-8.1 55.4 14.4 74.7 22.5 19.2 52.2 54.6 52.2 54.6l-6.4-115.7 20.9 45.8c0 0 45-57.8 98-77.1 53-19.3 85.9-86.8 85.9-86.8l45-35.3-37 44.2c0 0-11.2 52.2-74.7 89.1-63.4 37-104.4 91.6-106.8 125.3-2.4 33.8-4.8 63.5-4.8 63.5 0 0 118.9-4 145.4-56.2 26.5-52.2 28.9-155.9 54.6-172.7 25.7-16.9 73.9-37.8 73.9-37.8l-53.8 44.2c0 0-11.3 36.1-8.9 61.8 2.5 25.8-17.6 49.8-17.6 49.8l-15.3 45-16.9 38.6c0 0 69.1 1.6 105.3 42.6 36.1 40.9 126.1 53 126.1 53l-50.6 13.6c0 0-48.2-16-94-45.8-45.8-29.7-41-56.2-98-26.5-57 29.8-134.9 54.7-134.9 54.7 0 0 44.9-20.9 126.1 29.7 81.1 50.6-40.2-8.9-76.3 10.4-36.2 19.3-53-4.8-67.5 43.4-14.5 48.2-41 179.9-10.4 253.8l30.5 73.9z"/>
	<path id="Layer" class="s2" d="m720.1 290.8c-21.5 42.4-104 53-134.2 55.5-0.9 10.9-1.4 17.8-1.4 17.8 0 0 118.8-4.1 145.4-56.3 26.5-52.2 28.9-155.8 54.6-172.7 2.7-1.8 5.7-3.6 8.8-5.4 0.9-3.3 1.5-5.2 1.5-5.2l53.8-44.2c0 0-48.2 20.9-73.9 37.8-25.7 16.8-28.1 120.5-54.6 172.7z"/>
	<path id="Layer" class="s2" d="m581.6 209.6c-0.2 19.8-2.8 31.6-2.8 31.6 0 0 45-57.8 98-77.1q4.7-3 9.6-5.9c63.4-36.9 74.7-89.1 74.7-89.1l36.9-44.2-45 35.3c0 0-32.9 67.5-85.9 86.8-36.1 13.1-68.5 44.2-85.5 62.6z"/>
	<path id="Layer" class="s2" d="m512.2 401v17.7c0 0 48.2-45.8 45-61.1-2.5-11.6-5.4-35.5-20.3-55.8 6.7 15.3 8.7 30.3 10.5 38.8 2.3 10.9-21.8 37.5-35.7 51.7q0.2 1.1 0.3 2.2 0.2 1.1 0.2 2.2 0.1 1 0.1 2.1 0 1.1-0.1 2.2z"/>
	<path id="Layer" class="s2" d="m447.5 279.7q0.6 1.3 1.2 2.4c12.3 22.9 30.9 47.2 44.8 69.5-11.2-22.1-30.8-47.4-46-71.9z"/>
	<path id="Layer" class="s2" d="m486.7 245.5c-6.5-15.8-7.6-34.7-0.1-56.8q0-3.1 0-6.1 0.1-3 0.3-6 0.1-3 0.4-6 0.3-3 0.7-5.9l12.6-54.1c-2.3 7.8-7.6 22.8-19.9 50.8-15.4 35.5-9.6 63.3 6 84.1z"/>
	<path id="Layer" class="s2" d="m841.4 362.3c-25.1-28.5-66-37.9-88.7-41.1l-6.8 15.5c0 0 69.1 1.6 105.2 42.6 20.1 22.7 56.7 36.6 85.3 44.4l31.1-8.4c0 0-90-12.1-126.1-53z"/>
	<path id="Layer" class="s2" d="m349.9 351.2c33.8-14.5-12.8-95.6-12.8-95.6l-1.3-0.6c11.6 24.5 28.5 68.8 4.4 79.1-22.6 9.7-43.7-14.3-55.2-31.4 0.4 1.3 0.7 1.9 0.7 1.9 0 0 30.5 61.1 64.2 46.6z"/>
	<path id="Layer" class="s2" d="m460 403.4c0 0 10.1-31.3-9-50.7 4.7 16.7-0.8 33.7-0.8 33.7-12.4-28-55.1-40.1-73.8-44.2 0.7 9.4 0.8 15.4 0.8 15.4 0 0 66.7 9.7 82.8 45.8z"/>
	<path id="Layer" class="s2" d="m500.6 110.6c1.8-6.1 1.8-7.8 1.8-7.8z"/>
	<path id="Layer" class="s2" d="m99.6 432.5q0.3-0.1 0.5-0.2c33.8-11.2 62.7-53.8 92.4-68.2 29.7-14.5 47.4-33.8 87.5-12.9 0 0-7-28.8-20.6-47.7q1.7 3.7 3.2 7.5 1.6 3.8 2.9 7.6 1.4 3.8 2.6 7.7 1.2 3.9 2.2 7.8c-40.2-20.8-57.8-1.6-87.6 12.9-29.7 14.5-58.6 57-92.3 68.3-33.8 11.2-89.2-11.3-89.2-11.3 0 0 37 23.3 84.4 27.3 5.4 0.5 10 0.9 14 1.2z"/>
	<path id="Layer" class="s2" d="m434.5 822.5c14.7-45.1 50.1-169.9 22.3-252.8-12.1-35.8-23.2-58.7-32.7-73.3 7.1 13.8 14.8 32.1 22.9 56.2 34.5 102.8-28.1 269.9-28.1 269.9z"/>
	<path id="Layer" class="s2" d="m120.8 480.4q3.7 0.3 7.4 1 3.6 0.7 7.1 1.8 3.6 1 7.1 2.4 3.4 1.3 6.7 3c33 16.4 57.5 26.9 87.3 14.8 6.8-3.6 14.4-8.1 23.1-13.4 0.7-0.4 1.4-0.9 2.1-1.4 42.5-32.2 101.2-73.9 158.2-49 0 0-11.5-11.3-24.4-22.1-52.3-12.8-104.7 24.6-143.6 54-42.5 32.1-70.7 20.9-112.4 0-41.8-20.9-84.4 2.4-84.4 2.4 31.1-0.9 51.1 1.9 65.8 6.5z"/>
	<path id="Layer" class="s2" d="m202.4 121.5q0.3 0.6 0.7 1.2 0.4 0.5 0.8 1 0.4 0.6 0.8 1.1 0.5 0.5 1 0.9-0.4-0.5-0.8-1.1-0.4-0.5-0.8-1.1-0.4-0.5-0.8-1-0.5-0.5-0.9-1z"/>
	<path id="Layer" class="s2" d="m349.1 252.4q0.5 0.4 0.9 0.9 0.5 0.5 0.9 0.9 0.5 0.5 0.9 1 0.4 0.5 0.8 1c-3.5-8.5-7.9-15.8-13.2-20.9-26.5-24.9-69.9-23.2-69.9-23.2l54.4 24.9q3.5 1.3 6.8 2.9 3.4 1.6 6.5 3.6 3.2 1.9 6.2 4.2 3 2.2 5.7 4.7z"/>
	<path id="Layer" class="s2" d="m406.8 143.8c3.3 4.7 1.5 24.8-1.5 45.4-6.1 42 0.5 85 19.9 122.7q1 1.9 2 3.7 1 1.9 2.1 3.8 1 1.8 2.2 3.6 1.1 1.8 2.3 3.6c-18.5-37.2-24.7-79.3-18.8-120.4 3-20.5 4.9-40.6 1.6-45.4-7.2-10.4-37.8-74.7-40.2-91.5q-0.2-2.5-0.4-4.9-0.2-2.5-0.2-5-0.1-2.4-0.1-4.9 0.1-2.5 0.2-4.9c-6.2-17.7-6.8-49.6-6.8-49.6 0 0-4.8 35.3-2.4 52.2 2.4 16.9 32.9 81.1 40.1 91.6z"/>
	<path id="Layer" class="s2" d="m482.2 32.7q-0.1-0.6-0.3-1.1-0.1-0.6-0.3-1.2-0.2-0.6-0.4-1.2-0.2-0.5-0.5-1.1c-0.1-0.4 0.7 1.7 1.5 4.6z"/>
	<path id="Layer" class="s2" d="m198.5 113.6c7.1 0.9 15.2 3.1 21.4 8.1q-0.6-2.1-1-3.6c-7.2-26.5-45.8-21.7-45.8-21.7 17.4 2.2 21.9 9.7 25.4 17.2z"/>
	<path id="Layer" class="s0" d="m398.1 788.2c5.8 21.2 25.4 34.3 25.4 34.3 0 0 10.3-21.2 4.6-42.4-5.7-21.2-25.4-34.3-25.4-34.3 0 0-10.3 21.2-4.6 42.4z"/>
	<path id="Layer" class="s3" d="m406.6 783.6c15.7 15.3 17.6 38.8 17.6 38.8 0 0-23.6-1.2-39.3-16.5-15.7-15.3-17.6-38.9-17.6-38.9 0 0 23.5 1.3 39.3 16.6z"/>
	<path id="Layer" class="s3" d="m354.5 209.6c-1.4 21.9-18 38.7-18 38.7 0 0-14.4-18.7-13-40.6 1.4-21.9 18-38.7 18-38.7 0 0 14.3 18.8 13 40.6z"/>
	<path id="Layer" class="s3" d="m181.5 71.3c18.6 11.7 25.4 34.3 25.4 34.3 0 0-23.4 3.6-41.9-8.1-18.6-11.7-25.3-34.3-25.3-34.3 0 0 23.3-3.6 41.8 8.1z"/>
	<path id="Layer" class="s3" d="m140.1 338.1c18.6 11.7 25.3 34.3 25.3 34.3 0 0-23.3 3.7-41.8-8-18.6-11.7-25.4-34.3-25.4-34.3 0 0 23.4-3.7 41.9 8z"/>
	<path id="Layer" class="s3" d="m238.8 440.5c18.6 11.7 25.3 34.3 25.3 34.3 0 0-23.3 3.6-41.8-8.1-18.6-11.7-25.4-34.3-25.4-34.3 0 0 23.4-3.6 41.9 8.1z"/>
	<path id="Layer" class="s3" d="m517.3 110.3c-5.6 21.2-25.2 34.4-25.2 34.4 0 0-10.4-21.1-4.8-42.3 5.6-21.2 25.1-34.5 25.1-34.5 0 0 10.5 21.2 4.9 42.4z"/>
	<path id="Layer" class="s3" d="m693.7 126.8c-6.5 20.9-26.7 33.2-26.7 33.2 0 0-9.4-21.6-2.8-42.5 6.5-20.9 26.7-33.2 26.7-33.2 0 0 9.4 21.6 2.8 42.5z"/>
	<path id="Layer" class="s3" d="m884.5 359.7c-11.9 18.4-34.6 24.9-34.6 24.9 0 0-3.4-23.4 8.5-41.8 12-18.4 34.6-24.9 34.6-24.9 0 0 3.4 23.4-8.5 41.8z"/>
</svg>